<?xml version="1.0" encoding="UTF-8" standalone="no"?>
<!-- Created with Inkscape (http://www.inkscape.org/) -->

<svg
   width="145.97897mm"
   height="32.645203mm"
   viewBox="0 0 145.97897 32.645202"
   version="1.1"
   id="svg1"
   sodipodi:docname="before_stroke_to_path.svg"
   inkscape:version="1.3.1 (9b9bdc1480, 2023-11-25, custom)"
   xmlns:inkscape="http://www.inkscape.org/namespaces/inkscape"
   xmlns:sodipodi="http://sodipodi.sourceforge.net/DTD/sodipodi-0.dtd"
   xmlns="http://www.w3.org/2000/svg"
   xmlns:svg="http://www.w3.org/2000/svg">
  <sodipodi:namedview
     id="namedview1"
     pagecolor="#ffffff"
     bordercolor="#000000"
     borderopacity="0.25"
     inkscape:showpageshadow="2"
     inkscape:pageopacity="0.0"
     inkscape:pagecheckerboard="0"
     inkscape:deskcolor="#d1d1d1"
     inkscape:document-units="mm"
     inkscape:zoom="1.7581014"
     inkscape:cx="325.91977"
     inkscape:cy="96.126425"
     inkscape:window-width="1608"
     inkscape:window-height="986"
     inkscape:window-x="72"
     inkscape:window-y="27"
     inkscape:window-maximized="1"
     inkscape:current-layer="layer1"
     showgrid="true"
     showguides="true">
    <inkscape:grid
       id="grid1"
       units="mm"
       originx="1.0032783e-06"
       originy="8.2456728e-07"
       spacingx="0.99999995"
       spacingy="1"
       empcolor="#0099e5"
       empopacity="0.30196078"
       color="#0099e5"
       opacity="0.14901961"
       empspacing="5"
       dotted="false"
       gridanglex="30"
       gridanglez="30"
       visible="true" />
  </sodipodi:namedview>
  <defs
     id="defs1" />
  <g
     id="layer1"
     transform="translate(-49.9175,-99.885258)">
    <text
       xml:space="preserve"
       style="font-style:normal;font-variant:normal;font-weight:normal;font-stretch:normal;font-size:3.175px;font-family:'Tlwg Typo';-inkscape-font-specification:'Tlwg Typo';fill:#000000;stroke-width:0.264583"
       x="159.67297"
       y="106.98119"
       id="text1"><tspan
         id="tspan1"
         style="font-style:normal;font-variant:normal;font-weight:normal;font-stretch:normal;font-family:'Tlwg Typo';-inkscape-font-specification:'Tlwg Typo';stroke-width:0.264583"
         x="159.67297"
         y="106.98119">spike_amplitudes</tspan></text>
    <text
       xml:space="preserve"
       style="font-style:normal;font-variant:normal;font-weight:normal;font-stretch:normal;font-size:3.175px;font-family:'Tlwg Typo';-inkscape-font-specification:'Tlwg Typo';fill:#000000;stroke-width:0.264583"
       x="159.67297"
       y="111.98119"
       id="text1-4"><tspan
         id="tspan1-7"
         style="font-style:normal;font-variant:normal;font-weight:normal;font-stretch:normal;font-family:'Tlwg Typo';-inkscape-font-specification:'Tlwg Typo';stroke-width:0.264583"
         x="159.67297"
         y="111.98119">spike_locations</tspan></text>
    <text
       xml:space="preserve"
       style="font-style:normal;font-variant:normal;font-weight:normal;font-stretch:normal;font-size:3.175px;font-family:'Tlwg Typo';-inkscape-font-specification:'Tlwg Typo';fill:#000000;stroke-width:0.264583"
       x="159.86348"
       y="116.98119"
       id="text1-4-4"><tspan
         id="tspan1-7-0"
         style="font-style:normal;font-variant:normal;font-weight:normal;font-stretch:normal;font-family:'Tlwg Typo';-inkscape-font-specification:'Tlwg Typo';stroke-width:0.264583"
         x="159.86348"
         y="116.98119">template_metrics</tspan></text>
    <text
       xml:space="preserve"
       style="font-style:normal;font-variant:normal;font-weight:normal;font-stretch:normal;font-size:3.175px;font-family:'Tlwg Typo';-inkscape-font-specification:'Tlwg Typo';fill:#000000;stroke-width:0.264583"
       x="159.76947"
       y="101.89847"
       id="text1-4-4-3"><tspan
         id="tspan1-7-0-6"
         style="font-style:normal;font-variant:normal;font-weight:normal;font-stretch:normal;font-family:'Tlwg Typo';-inkscape-font-specification:'Tlwg Typo';stroke-width:0.264583"
         x="159.76947"
         y="101.89847">amplitude_scalings</tspan></text>
    <text
       xml:space="preserve"
       style="font-style:normal;font-variant:normal;font-weight:normal;font-stretch:normal;font-size:3.175px;font-family:'Tlwg Typo';-inkscape-font-specification:'Tlwg Typo';fill:#000000;stroke-width:0.264583"
       x="159.71326"
       y="131.93991"
       id="text1-4-4-3-2-3"><tspan
         id="tspan1-7-0-6-3-2"
         style="font-style:normal;font-variant:normal;font-weight:normal;font-stretch:normal;font-family:'Tlwg Typo';-inkscape-font-specification:'Tlwg Typo';stroke-width:0.264583"
         x="159.71326"
         y="131.93991">quality_metrics</tspan></text>
    <text
       xml:space="preserve"
       style="font-style:normal;font-variant:normal;font-weight:normal;font-stretch:normal;font-size:3.175px;font-family:'Tlwg Typo';-inkscape-font-specification:'Tlwg Typo';fill:#000000;stroke-width:0.264583"
       x="114.86348"
       y="119.03352"
       id="text1-4-4-3-2-3-0"><tspan
         id="tspan1-7-0-6-3-2-7"
         style="font-style:normal;font-variant:normal;font-weight:normal;font-stretch:normal;font-family:'Tlwg Typo';-inkscape-font-specification:'Tlwg Typo';stroke-width:0.264583"
         x="114.86348"
         y="119.03352">templates</tspan></text>
    <text
       xml:space="preserve"
       style="font-style:normal;font-variant:normal;font-weight:normal;font-stretch:normal;font-size:3.175px;font-family:'Tlwg Typo';-inkscape-font-specification:'Tlwg Typo';fill:#000000;stroke-width:0.264583"
       x="84.86348"
       y="111.91769"
       id="text1-4-4-3-2-3-0-7"><tspan
         id="tspan1-7-0-6-3-2-7-2"
         style="font-style:normal;font-variant:normal;font-weight:normal;font-stretch:normal;font-family:'Tlwg Typo';-inkscape-font-specification:'Tlwg Typo';stroke-width:0.264583"
         x="84.86348"
         y="111.91769">waveforms</tspan></text>
    <text
       xml:space="preserve"
       style="font-style:normal;font-variant:normal;font-weight:normal;font-stretch:normal;font-size:2.11667px;font-family:'Tlwg Typo';-inkscape-font-specification:'Tlwg Typo';fill:#000000;stroke-width:0.264583"
       x="89.905991"
       y="131.2637"
       id="text1-4-4-3-2-3-0-7-1"><tspan
         id="tspan1-7-0-6-3-2-7-2-27"
         style="font-style:normal;font-variant:normal;font-weight:normal;font-stretch:normal;font-size:2.11667px;font-family:'Tlwg Typo';-inkscape-font-specification:'Tlwg Typo';stroke-width:0.264583"
         x="89.905991"
         y="131.2637">(some quality metrics depend on noise_levels)</tspan></text>
    <text
       xml:space="preserve"
       style="font-style:normal;font-variant:normal;font-weight:normal;font-stretch:normal;font-size:2.11667px;font-family:'Tlwg Typo';-inkscape-font-specification:'Tlwg Typo';fill:#000000;stroke-width:0.264583"
       x="99.687737"
       y="100.50018"
       id="text1-4-4-3-2-3-0-7-1-2"
       transform="rotate(9.4113785)"><tspan
         id="tspan1-7-0-6-3-2-7-2-27-9"
         style="font-style:normal;font-variant:normal;font-weight:normal;font-stretch:normal;font-size:2.11667px;font-family:'Tlwg Typo';-inkscape-font-specification:'Tlwg Typo';stroke-width:0.264583"
         x="99.687737"
         y="100.50018">(<tspan
   style="font-style:italic"
   id="tspan2">either <tspan
   style="font-style:normal"
   id="tspan7">are parents</tspan>)</tspan></tspan></text>
    <text
       xml:space="preserve"
       style="font-style:normal;font-variant:normal;font-weight:normal;font-stretch:normal;font-size:3.175px;font-family:'Tlwg Typo';-inkscape-font-specification:'Tlwg Typo';fill:#000000;stroke-width:0.264583"
       x="114.85263"
       y="101.87476"
       id="text1-4-4-3-2-3-0-2"><tspan
         id="tspan1-7-0-6-3-2-7-0"
         style="font-style:normal;font-variant:normal;font-weight:normal;font-stretch:normal;font-family:'Tlwg Typo';-inkscape-font-specification:'Tlwg Typo';stroke-width:0.264583"
         x="114.85263"
         y="101.87476">principal_components</tspan></text>
    <text
       xml:space="preserve"
       style="font-style:normal;font-variant:normal;font-weight:normal;font-stretch:normal;font-size:3.175px;font-family:'Tlwg Typo';-inkscape-font-specification:'Tlwg Typo';fill:#000000;stroke-width:0.264583"
       x="50.113583"
       y="132.03532"
       id="text1-4-4-3-2-3-0-2-0"><tspan
         id="tspan1-7-0-6-3-2-7-0-8"
         style="font-style:normal;font-variant:normal;font-weight:normal;font-stretch:normal;font-family:'Tlwg Typo';-inkscape-font-specification:'Tlwg Typo';stroke-width:0.264583"
         x="50.113583"
         y="132.03532">noise_levels</tspan></text>
    <path
       style="color:#000000;fill:#000000;-inkscape-stroke:none"
       d="M 133.39852,111.25411 H 159"
       id="path22" />
    <path
       style="color:#000000;fill:#000000;-inkscape-stroke:none"
       d="m 132.5447,118.09576 v 0.16406 L 159,111.33594 v -0.16406 z"
       id="path23"
       sodipodi:nodetypes="ccccc" />
    <g
       id="g21"
       transform="rotate(-0.05732143,8609.8913,-436.91)">
      <path
         style="color:#000000;fill:#000000;-inkscape-stroke:none"
         d="m 146.33398,110.70117 -0.55273,0.55274 0.55273,0.55273 0.11719,-0.11523 -0.4375,-0.4375 0.4375,-0.43555 z"
         id="path21" />
    </g>
    <path
       style="color:#000000;fill:#000000;-inkscape-stroke:none"
       d="M 133.41186,111.80745 159,116"
       id="path19" />
    <path
       style="color:#000000;fill:#000000;-inkscape-stroke:none"
       d="m 132.51884,118.44744 -0.0273,0.16211 26.49483,-2.52752 0.0273,-0.16406 z"
       id="path20"
       sodipodi:nodetypes="ccccc" />
    <g
       id="g18"
       transform="rotate(9.162334,91.257575,117.41665)">
      <path
         style="color:#000000;fill:#000000;-inkscape-stroke:none"
         d="m 146.26562,113.35352 -0.63476,0.45507 0.45703,0.63672 0.13281,-0.0957 -0.35937,-0.50195 0.50195,-0.36133 z"
         id="path18" />
    </g>
    <g
       id="path4-7-7">
      <path
         style="color:#000000;fill:#000000;-inkscape-stroke:none"
         d="m 103.62596,109.49932 9.67762,-8.05735"
         id="path10" />
      <path
         style="color:#000000;fill:#000000;-inkscape-stroke:none"
         d="m 113.25,101.37891 -9.67773,8.05664 0.10742,0.12695 9.67578,-8.05664 z"
         id="path11" />
      <g
         id="g9">
        <path
           style="color:#000000;fill:#000000;-inkscape-stroke:none"
           d="m 108.64844,104.59766 -0.0723,0.77929 0.7793,0.0723 0.0156,-0.16406 -0.61523,-0.0566 0.0566,-0.61524 z"
           id="path9" />
      </g>
    </g>
    <path
       style="color:#000000;fill:#000000;-inkscape-stroke:none"
       d="M 133.39852,112.50824 159,120.40792"
       id="path31" />
    <path
       style="color:#000000;fill:#000000;-inkscape-stroke:none"
       d="m 132.53341,118.85835 -0.0469,0.1582 26.49002,1.46978 0.0469,-0.1582 z"
       id="path32"
       sodipodi:nodetypes="ccccc" />
    <g
       id="g30"
       transform="rotate(9.3419623,92.605248,120.12058)">
      <path
         style="color:#000000;fill:#000000;-inkscape-stroke:none"
         d="m 145.92187,115.79297 -0.6914,0.36523 0.36523,0.69336 0.14649,-0.0781 -0.28907,-0.54492 L 146,115.93945 Z"
         id="path30" />
    </g>
    <g
       id="path4-7-0-5"
       transform="translate(0,10.054167)">
      <path
         style="color:#000000;fill:#000000;stroke-dasharray:0.165, 0.165;-inkscape-stroke:none"
         d="m 74.991027,121.62422 84.011743,0.0373"
         id="path16" />
      <path
         style="color:#000000;fill:#000000;stroke-dasharray:0.165, 0.165;-inkscape-stroke:none"
         d="m 74.990234,121.54102 v 0.16601 h 0.166016 v -0.16601 z m 0.330078,0 v 0.16601 h 0.166016 v -0.16601 z m 0.330079,0.002 v 0.16406 h 0.166015 v -0.16406 z m 0.330078,0 v 0.16406 h 0.166015 v -0.16406 z m 0.330078,0 v 0.16406 h 0.166015 v -0.16406 z m 0.330078,0 v 0.16406 h 0.166016 v -0.16406 z m 0.330078,0 v 0.16406 h 0.166016 v -0.16406 z m 0.330078,0 v 0.16406 h 0.166016 v -0.16406 z m 0.330078,0 v 0.16406 h 0.166016 v -0.16406 z m 0.330078,0 v 0.16601 h 0.166016 v -0.16601 z m 0.330079,0 v 0.16601 h 0.164062 l 0.002,-0.16601 z m 0.330078,0 v 0.16601 h 0.164062 v -0.16601 z m 0.330078,0 v 0.16601 h 0.164062 v -0.16601 z m 0.330078,0 v 0.16601 h 0.164062 v -0.16601 z m 0.330078,0 v 0.16601 h 0.164063 v -0.16601 z m 0.330078,0 v 0.16601 h 0.164063 v -0.16406 z m 0.330078,0.002 v 0.16406 h 0.164063 v -0.16406 z m 0.330078,0 v 0.16406 h 0.164063 v -0.16406 z m 0.330079,0 v 0.16406 h 0.164062 v -0.16406 z m 0.330078,0 v 0.16406 h 0.164062 v -0.16406 z m 0.330078,0 v 0.16406 h 0.164062 v -0.16406 z m 0.330078,0 v 0.16406 h 0.164062 v -0.16406 z m 0.330078,0 v 0.16406 l 0.164063,0.002 v -0.16602 z m 0.330078,0 -0.002,0.16602 h 0.166016 v -0.16602 z m 0.328125,0 v 0.16602 h 0.166016 v -0.16602 z m 0.330078,0 v 0.16602 h 0.166016 v -0.16602 z m 0.330078,0 v 0.16602 h 0.166016 v -0.16602 z m 0.330079,0 v 0.16602 h 0.166015 v -0.16602 z m 0.330078,0 v 0.16602 h 0.166015 v -0.16602 z m 0.330078,0.002 v 0.16406 h 0.166015 v -0.16406 z m 0.330078,0 v 0.16406 h 0.166016 v -0.16406 z m 0.330078,0 v 0.16406 h 0.166016 v -0.16406 z m 0.330078,0 v 0.16406 h 0.166016 v -0.16406 z m 0.330078,0 v 0.16406 h 0.166016 v -0.16406 z m 0.330078,0 v 0.16406 h 0.166016 v -0.16406 z m 0.330079,0 v 0.16406 l 0.164062,0.002 0.002,-0.16601 z m 0.330078,0 v 0.16601 h 0.164062 v -0.16601 z m 0.330078,0 v 0.16601 h 0.164062 v -0.16601 z m 0.330078,0 v 0.16601 h 0.164062 v -0.16601 z m 0.330078,0 v 0.16601 h 0.164063 v -0.16601 z m 0.330078,0 v 0.16601 h 0.164063 v -0.16601 z m 0.330078,0 v 0.16601 h 0.164063 v -0.16601 z m 0.330078,0.002 v 0.16406 h 0.164063 v -0.16406 z m 0.330079,0 v 0.16406 h 0.164062 v -0.16406 z m 0.330078,0 v 0.16406 h 0.164062 v -0.16406 z m 0.330078,0 v 0.16406 h 0.164062 v -0.16406 z m 0.330078,0 v 0.16406 h 0.164062 v -0.16406 z m 0.330078,0 v 0.16406 h 0.164063 v -0.16406 z m 0.330078,0 -0.002,0.16406 h 0.166016 v -0.16406 z m 0.328125,0 v 0.16601 h 0.166016 v -0.16601 z m 0.330078,0 v 0.16601 h 0.166016 v -0.16601 z m 0.330078,0 v 0.16601 h 0.166016 v -0.16601 z m 0.330079,0 v 0.16601 h 0.166015 v -0.16601 z m 0.330078,0 v 0.16601 h 0.166015 v -0.16601 z m 0.330078,0 v 0.16601 h 0.166015 v -0.16601 z m 0.330078,0 v 0.16601 h 0.166016 v -0.16406 z m 0.330078,0.002 v 0.16406 h 0.166016 v -0.16406 z m 0.330078,0 v 0.16406 h 0.166016 v -0.16406 z m 0.330078,0 v 0.16406 h 0.166016 v -0.16406 z m 0.330078,0 v 0.16406 h 0.166016 v -0.16406 z m 0.330079,0 v 0.16406 h 0.164062 l 0.002,-0.16406 z m 0.330078,0 v 0.16406 h 0.164062 v -0.16406 z m 0.330078,0 v 0.16406 l 0.164062,0.002 v -0.16602 z m 0.330078,0 v 0.16602 h 0.164062 v -0.16602 z m 0.330078,0 v 0.16602 h 0.164063 v -0.16602 z m 0.330078,0 v 0.16602 h 0.164063 v -0.16602 z m 0.330078,0 v 0.16602 h 0.164063 v -0.16602 z m 0.330078,0 v 0.16602 h 0.164063 v -0.16602 z m 0.330079,0 v 0.16602 h 0.164062 v -0.16602 z m 0.330078,0.002 v 0.16407 h 0.164062 v -0.16407 z m 0.330078,0 v 0.16407 h 0.164062 v -0.16407 z m 0.330078,0 v 0.16407 h 0.164062 v -0.16407 z m 0.330078,0 v 0.16407 h 0.164063 v -0.16407 z m 0.330078,0 -0.002,0.16407 h 0.166016 v -0.16407 z m 0.328125,0 v 0.16407 h 0.166016 v -0.16407 z m 0.330078,0 v 0.16407 l 0.166016,0.002 v -0.16602 z m 0.330076,0 v 0.16602 h 0.16602 v -0.16602 z m 0.33008,0 v 0.16602 h 0.16602 v -0.16602 z m 0.33008,0 v 0.16602 h 0.16601 v -0.16602 z m 0.33008,0 v 0.16602 h 0.16601 v -0.16602 z m 0.33008,0 v 0.16602 h 0.16601 v -0.16602 z m 0.33007,0 v 0.16602 h 0.16602 v -0.16602 z m 0.33008,0.002 v 0.16406 h 0.16602 v -0.16406 z m 0.33008,0 v 0.16406 h 0.16602 v -0.16406 z m 0.33008,0 v 0.16406 h 0.16601 v -0.16406 z m 0.33008,0 v 0.16406 h 0.16406 l 0.002,-0.16406 z m 0.33007,0 v 0.16406 h 0.16407 v -0.16406 z m 0.33008,0 v 0.16406 h 0.16406 v -0.16406 z m 0.33008,0 v 0.16406 h 0.16406 v -0.16406 z m 0.33008,0 v 0.16601 h 0.16406 v -0.16601 z m 0.33008,0 v 0.16601 h 0.16406 v -0.16601 z m 0.33007,0 v 0.16601 h 0.16407 v -0.16601 z m 0.33008,0 v 0.16601 h 0.16407 v -0.16601 z m 0.33008,0 v 0.16601 h 0.16406 v -0.16601 z m 0.33008,0 v 0.16601 h 0.16406 v -0.16601 z m 0.33008,0 v 0.16601 h 0.16406 v -0.16406 z m 0.33008,0.002 v 0.16406 h 0.16406 v -0.16406 z m 0.33007,0 v 0.16406 h 0.16407 v -0.16406 z m 0.33008,0 -0.002,0.16406 h 0.16601 v -0.16406 z m 0.32813,0 v 0.16406 h 0.16601 v -0.16406 z m 0.33007,0 v 0.16406 h 0.16602 v -0.16406 z m 0.33008,0 v 0.16406 h 0.16602 v -0.16406 z m 0.33008,0 v 0.16406 l 0.16602,0.002 v -0.16602 z m 0.33008,0 v 0.16602 h 0.16601 v -0.16602 z m 0.33008,0 v 0.16602 h 0.16601 v -0.16602 z m 0.33008,0 v 0.16602 h 0.16601 v -0.16602 z m 0.33007,0 v 0.16602 h 0.16602 v -0.16602 z m 0.33008,0 v 0.16602 h 0.16602 v -0.16602 z m 0.33008,0 v 0.16602 h 0.16602 v -0.16602 z m 0.33008,0.002 v 0.16407 h 0.16601 v -0.16407 z m 0.33008,0 v 0.16407 h 0.16406 l 0.002,-0.16407 z m 0.33007,0 v 0.16407 h 0.16407 v -0.16407 z m 0.33008,0 v 0.16407 h 0.16406 v -0.16407 z m 0.33008,0 v 0.16407 h 0.16406 v -0.16407 z m 0.33008,0 v 0.16407 h 0.16406 v -0.16407 z m 0.33008,0 v 0.16407 l 0.16406,0.002 v -0.16602 z m 0.33007,0 v 0.16602 h 0.16407 v -0.16602 z m 0.33008,0 v 0.16602 h 0.16407 v -0.16602 z m 0.33008,0 v 0.16602 h 0.16406 v -0.16602 z m 0.33008,0 v 0.16602 h 0.16406 v -0.16602 z m 0.33008,0 v 0.16602 h 0.16406 v -0.16602 z m 0.33008,0 v 0.16602 h 0.16406 v -0.16602 z m 0.33007,0.002 v 0.16406 h 0.16407 v -0.16406 z m 0.33008,0 -0.002,0.16406 h 0.16601 v -0.16406 z m 0.32813,0 v 0.16406 h 0.16601 v -0.16406 z m 0.33007,0 v 0.16406 h 0.16602 v -0.16406 z m 0.33008,0 v 0.16406 h 0.16602 v -0.16406 z m 0.33008,0 v 0.16406 h 0.16602 v -0.16406 z m 0.33008,0 v 0.16406 h 0.16601 v -0.16406 z m 0.33008,0 v 0.16601 h 0.16601 v -0.16601 z m 0.33008,0 v 0.16601 h 0.16601 v -0.16601 z m 0.33007,0 v 0.16601 h 0.16602 v -0.16601 z m 0.33008,0 v 0.16601 h 0.16602 v -0.16601 z m 0.33008,0 v 0.16601 h 0.16602 v -0.16601 z m 0.33008,0 v 0.16601 h 0.16601 v -0.16601 z m 0.33008,0 v 0.16601 h 0.16406 l 0.002,-0.16406 z m 0.33007,0.002 v 0.16406 h 0.16407 v -0.16406 z m 0.33008,0 v 0.16406 h 0.16406 v -0.16406 z m 0.33008,0 v 0.16406 h 0.16406 v -0.16406 z m 0.33008,0 v 0.16406 h 0.16406 v -0.16406 z m 0.33008,0 v 0.16406 h 0.16406 v -0.16406 z m 0.33007,0 v 0.16406 h 0.16407 v -0.16406 z m 0.33008,0 v 0.16406 l 0.16407,0.002 v -0.16602 z m 0.33008,0 v 0.16602 h 0.16406 v -0.16602 z m 0.33008,0 v 0.16602 h 0.16406 v -0.16602 z m 0.33008,0 v 0.16602 h 0.16406 v -0.16602 z m 0.33008,0 v 0.16602 h 0.16406 v -0.16602 z m 0.33007,0 v 0.16602 h 0.16407 v -0.16602 z m 0.33008,0 -0.002,0.16602 h 0.16601 v -0.16407 z m 0.32813,0.002 v 0.16407 h 0.16601 v -0.16407 z m 0.33007,0 v 0.16407 h 0.16602 v -0.16407 z m 0.33008,0 v 0.16407 h 0.16602 v -0.16407 z m 0.33008,0 v 0.16407 h 0.16602 v -0.16407 z m 0.33008,0 v 0.16407 h 0.16601 v -0.16407 z m 0.33008,0 v 0.16407 h 0.16601 v -0.16407 z m 0.33008,0 v 0.16407 l 0.16601,0.002 v -0.16602 z m 0.33007,0 v 0.16602 h 0.16602 v -0.16602 z m 0.33008,0 v 0.16602 h 0.16602 v -0.16602 z m 0.33008,0 v 0.16602 h 0.16602 v -0.16602 z m 0.33008,0 v 0.16602 h 0.16601 v -0.16602 z m 0.33008,0 v 0.16602 h 0.16406 l 0.002,-0.16602 z m 0.33007,0 v 0.16602 h 0.16407 v -0.16602 z m 0.33008,0.002 v 0.16406 h 0.16406 v -0.16406 z m 0.33008,0 v 0.16406 h 0.16406 v -0.16406 z m 0.33008,0 v 0.16406 h 0.16406 v -0.16406 z m 0.33008,0 v 0.16406 h 0.16406 v -0.16406 z m 0.33007,0 v 0.16406 h 0.16407 v -0.16406 z m 0.33008,0 v 0.16406 h 0.16406 v -0.16406 z m 0.33008,0 v 0.16406 h 0.16406 v -0.16406 z m 0.33008,0 v 0.16601 h 0.16406 v -0.16601 z m 0.33008,0 v 0.16601 h 0.16406 v -0.16601 z m 0.33007,0 v 0.16601 h 0.16407 v -0.16601 z m 0.33008,0 v 0.16601 h 0.16407 v -0.16601 z m 0.33008,0 -0.002,0.16601 h 0.16601 v -0.16601 z m 0.32813,0 v 0.16601 h 0.16601 v -0.16601 z m 0.33007,0 v 0.16601 h 0.16602 v -0.16406 z m 0.33008,0.002 v 0.16406 h 0.16602 v -0.16406 z m 0.33008,0 v 0.16406 h 0.16602 v -0.16406 z m 0.33008,0 v 0.16406 h 0.16601 v -0.16406 z m 0.33008,0 v 0.16406 h 0.16601 v -0.16406 z m 0.33007,0 v 0.16406 h 0.16602 v -0.16406 z m 0.33008,0 v 0.16406 h 0.16602 v -0.16406 z m 0.33008,0 v 0.16406 l 0.16602,0.002 v -0.16602 z m 0.33008,0 v 0.16602 h 0.16601 v -0.16602 z m 0.33008,0 v 0.16602 h 0.16601 v -0.16602 z m 0.33008,0 v 0.16602 h 0.16406 l 0.002,-0.16602 z m 0.33007,0 v 0.16602 h 0.16407 v -0.16602 z m 0.33008,0 v 0.16602 h 0.16406 v -0.16602 z m 0.33008,0 v 0.16602 h 0.16406 v -0.16407 z m 0.33008,0.002 v 0.16407 h 0.16406 v -0.16407 z m 0.33008,0 v 0.16407 h 0.16406 v -0.16407 z m 0.33007,0 v 0.16407 h 0.16407 v -0.16407 z m 0.33008,0 v 0.16407 h 0.16406 v -0.16407 z m 0.33008,0 v 0.16407 h 0.16406 v -0.16407 z m 0.33008,0 v 0.16407 h 0.16406 v -0.16407 z m 0.33008,0 v 0.16407 l 0.16406,0.002 v -0.16602 z m 0.33007,0 v 0.16602 h 0.16407 v -0.16602 z m 0.33008,0 v 0.16602 h 0.16407 v -0.16602 z m 0.33008,0 -0.002,0.16602 h 0.16601 v -0.16602 z m 0.32813,0 v 0.16602 h 0.16601 v -0.16602 z m 0.33007,0 v 0.16602 h 0.16602 v -0.16602 z m 0.33008,0 v 0.16602 h 0.16602 v -0.16602 z m 0.33008,0.002 v 0.16406 h 0.16602 v -0.16406 z m 0.33008,0 v 0.16406 h 0.16601 v -0.16406 z m 0.33008,0 v 0.16406 h 0.16601 v -0.16406 z m 0.33007,0 v 0.16406 h 0.16602 v -0.16406 z m 0.33008,0 v 0.16406 h 0.16602 v -0.16406 z m 0.33008,0 v 0.16406 h 0.16602 v -0.16406 z m 0.33008,0 v 0.16406 h 0.16601 v -0.16406 z m 0.33008,0 v 0.16601 h 0.16601 v -0.16601 z m 0.33008,0 v 0.16601 h 0.16406 l 0.002,-0.16601 z m 0.33007,0 v 0.16601 h 0.16407 v -0.16601 z m 0.33008,0 v 0.16601 h 0.16406 v -0.16601 z m 0.33008,0 v 0.16601 h 0.16406 v -0.16601 z m 0.33008,0 v 0.16601 h 0.16406 v -0.16601 z m 0.33008,0 v 0.16601 h 0.16406 v -0.16406 z m 0.33007,0.002 v 0.16406 h 0.16407 v -0.16406 z m 0.33008,0 v 0.16406 h 0.16406 v -0.16406 z m 0.33008,0 v 0.16406 h 0.16406 v -0.16406 z m 0.33008,0 v 0.16406 h 0.16406 v -0.16406 z m 0.33008,0 v 0.16406 h 0.16406 v -0.16406 z m 0.33007,0 v 0.16406 h 0.16407 v -0.16406 z m 0.33008,0 v 0.16406 l 0.16407,0.002 v -0.16601 z m 0.33008,0 -0.002,0.16601 h 0.16601 v -0.16601 z m 0.32813,0 v 0.16601 h 0.16601 v -0.16601 z m 0.33007,0 v 0.16601 h 0.16602 v -0.16601 z m 0.33008,0 v 0.16601 h 0.16602 v -0.16601 z m 0.33008,0 v 0.16601 h 0.16602 v -0.16601 z m 0.33008,0 v 0.16601 h 0.16601 v -0.16406 z m 0.33008,0.002 v 0.16406 h 0.16601 v -0.16406 z m 0.33007,0 v 0.16406 h 0.16602 v -0.16406 z m 0.33008,0 v 0.16406 h 0.16602 v -0.16406 z m 0.33008,0 v 0.16406 h 0.16602 v -0.16406 z m 0.33008,0 v 0.16406 h 0.16601 v -0.16406 z m 0.33008,0 v 0.16406 h 0.16601 v -0.16406 z m 0.33008,0 v 0.16406 l 0.16406,0.002 0.002,-0.16602 z m 0.33007,0 v 0.16602 h 0.16407 v -0.16602 z m 0.33008,0 v 0.16602 h 0.16406 v -0.16602 z m 0.33008,0 v 0.16602 h 0.16406 v -0.16602 z m 0.33008,0 v 0.16602 h 0.16406 v -0.16602 z m 0.33008,0 v 0.16602 h 0.16406 v -0.16602 z m 0.33007,0 v 0.16602 h 0.16407 v -0.16602 z m 0.33008,0.002 v 0.16406 h 0.16406 v -0.16406 z m 0.33008,0 v 0.16406 h 0.16406 v -0.16406 z m 0.33008,0 v 0.16406 h 0.16406 v -0.16406 z m 0.33008,0 v 0.16406 h 0.16406 v -0.16406 z m 0.33007,0 v 0.16406 h 0.16407 v -0.16406 z m 0.33008,0 v 0.16406 h 0.16407 v -0.16406 z m 0.33008,0 -0.002,0.16406 h 0.16601 v -0.16406 z m 0.32813,0 v 0.16601 h 0.16601 v -0.16601 z m 0.33007,0 v 0.16601 h 0.16602 v -0.16601 z m 0.33008,0 v 0.16601 h 0.16602 v -0.16601 z m 0.33008,0 v 0.16601 h 0.16602 v -0.16601 z m 0.33008,0 v 0.16601 h 0.16601 v -0.16601 z m 0.33008,0 v 0.16601 h 0.16601 v -0.16601 z"
         id="path17" />
      <g
         id="g15">
        <path
           style="color:#000000;fill:#000000;-inkscape-stroke:none"
           d="m 117.13086,121.08984 -0.55273,0.55274 0.55273,0.55273 0.11719,-0.11523 -0.43555,-0.4375 0.43555,-0.43555 z"
           id="path15" />
      </g>
    </g>
    <path
       style="color:#000000;fill:#000000;-inkscape-stroke:none"
       d="M 133.42466,110.56914 159,106.55333"
       id="path25" />
    <path
       style="color:#000000;fill:#000000;-inkscape-stroke:none"
       d="m 158.98633,106.47266 -26.45015,11.18087 0.0254,0.16211 26.4521,-11.18087 z"
       id="path26"
       sodipodi:nodetypes="ccccc" />
    <g
       id="g24"
       transform="rotate(3.1124161,-10.502737,132.12704)">
      <path
         style="color:#000000;fill:#000000;-inkscape-stroke:none"
         d="m 146.11719,108.01563 -0.46094,0.63281 0.63281,0.46094 0.0977,-0.13282 -0.5,-0.36328 0.36523,-0.5 z"
         id="path24" />
    </g>
    <path
       style="color:#000000;fill:#000000;-inkscape-stroke:none"
       d="M 133.41186,109.99999 159,102"
       id="path28" />
    <path
       style="color:#000000;fill:#000000;-inkscape-stroke:none"
       d="m 158.97461,101.92188 -26.4719,15.28217 0.0488,0.15625 26.47385,-15.28217 z"
       id="path29"
       sodipodi:nodetypes="ccccc" />
    <g
       id="g27"
       transform="translate(1.3580614,8.2140118)">
      <path
         style="color:#000000;fill:#000000;-inkscape-stroke:none"
         d="m 145.59375,105.61133 -0.36328,0.69336 0.69336,0.36328 0.0762,-0.14649 -0.54688,-0.28515 0.28516,-0.54883 z"
         id="path27" />
    </g>
    <g
       id="path6-0">
      <path
         style="color:#000000;fill:#000000;-inkscape-stroke:none"
         d="m 74.96805,111.22236 9.428649,0.0636"
         id="path3" />
      <path
         style="color:#000000;fill:#000000;-inkscape-stroke:none"
         d="m 74.96875,111.14063 -0.002,0.16406 9.429687,0.0645 v -0.16601 z"
         id="path8" />
      <g
         id="g2">
        <path
           style="color:#000000;fill:#000000;-inkscape-stroke:none"
           d="m 79.822266,110.70117 -0.556641,0.55078 0.548828,0.55664 0.117188,-0.11523 -0.433594,-0.44141 0.439453,-0.43359 z"
           id="path2" />
      </g>
    </g>
    <g
       id="path6-0-5">
      <g
         id="path1">
        <path
           style="color:#000000;fill:#000000;stroke-dasharray:0.165, 0.165;-inkscape-stroke:none"
           d="m 114.34609,117.4152 -10.83224,-5.36119"
           id="path40" />
        <path
           style="color:#000000;fill:#000000;stroke-dasharray:0.165, 0.165;-inkscape-stroke:none"
           d="m 103.60938,111.95313 -0.11719,0.23828 0.14844,0.0723 0.11718,-0.23633 z m 0.29687,0.14648 -0.11914,0.23828 0.14844,0.0723 0.11718,-0.23633 z m 0.29492,0.14648 -0.11719,0.23829 0.14844,0.0723 0.11719,-0.23633 z m 0.29492,0.14649 -0.11718,0.23828 0.14843,0.0723 0.11719,-0.23633 z m 0.29688,0.14648 -0.11719,0.23828 0.14649,0.0723 0.11914,-0.23633 z m 0.29492,0.14649 -0.11719,0.23633 0.14844,0.0742 0.11719,-0.23632 z m 0.29688,0.14648 -0.11719,0.23633 0.14648,0.0742 0.11719,-0.23828 z m 0.29492,0.14649 -0.11719,0.23632 0.14844,0.0742 0.11719,-0.23828 z m 0.29687,0.14648 -0.11914,0.23633 0.14844,0.0742 0.11719,-0.23828 z m 0.29492,0.14648 -0.11718,0.23633 0.14843,0.0742 0.11719,-0.23828 z m 0.29493,0.14649 -0.11719,0.23633 0.14844,0.0742 0.11718,-0.23829 z m 0.29687,0.14648 -0.11719,0.23633 0.14649,0.0742 0.11914,-0.23828 z m 0.29492,0.14649 -0.11718,0.23633 0.14843,0.0742 0.11719,-0.23828 z m 0.29688,0.14648 -0.11719,0.23633 0.14649,0.0742 0.11718,-0.23828 z m 0.29492,0.14649 -0.11719,0.23632 0.14844,0.0723 0.11719,-0.23633 z m 0.29688,0.14648 -0.11915,0.23633 0.14844,0.0723 0.11719,-0.23632 z m 0.29492,0.14453 -0.11719,0.23828 0.14844,0.0723 0.11718,-0.23633 z m 0.29492,0.14649 -0.11719,0.23828 0.14844,0.0723 0.11719,-0.23632 z m 0.29687,0.14648 -0.11718,0.23828 0.14648,0.0723 0.11914,-0.23633 z m 0.29493,0.14649 -0.11719,0.23828 0.14844,0.0723 0.11718,-0.23633 z m 0.29687,0.14648 -0.11719,0.23828 0.14649,0.0723 0.11719,-0.23633 z m 0.29492,0.14648 -0.11718,0.23829 0.14843,0.0723 0.11719,-0.23633 z m 0.29688,0.14649 -0.11914,0.23828 0.14843,0.0723 0.11719,-0.23633 z m 0.29492,0.14648 -0.11719,0.23828 0.14844,0.0723 0.11719,-0.23633 z m 0.29492,0.14649 -0.11719,0.23633 0.14844,0.0742 0.11719,-0.23632 z m 0.29688,0.14648 -0.11719,0.23633 0.14648,0.0742 0.11914,-0.23828 z m 0.29492,0.14649 -0.11719,0.23632 0.14844,0.0742 0.11719,-0.23828 z m 0.29687,0.14648 -0.11718,0.23633 0.14648,0.0742 0.11719,-0.23828 z m 0.29493,0.14648 -0.11719,0.23633 0.14844,0.0742 0.11718,-0.23828 z m 0.29687,0.14649 -0.11914,0.23633 0.14844,0.0742 0.11718,-0.23829 z m 0.29492,0.14648 -0.11719,0.23633 0.14844,0.0742 0.11719,-0.23828 z m 0.29492,0.14649 -0.11718,0.23633 0.14843,0.0742 0.11719,-0.23828 z m 0.29688,0.14648 -0.11719,0.23633 0.14649,0.0742 0.11914,-0.23828 z m 0.29492,0.14649 -0.11719,0.23632 0.14844,0.0723 0.11719,-0.23633 z m 0.29688,0.14648 -0.11719,0.23633 0.14648,0.0723 0.11719,-0.23632 z m 0.29492,0.14453 -0.11719,0.23828 0.14844,0.0723 0.11719,-0.23633 z m 0.29687,0.14649 -0.11914,0.23828 0.14844,0.0723 0.11719,-0.23632 z"
           id="path41" />
      </g>
      <g
         id="path1-5">
        <path
           style="color:#000000;fill:#000000;stroke-dasharray:0.165, 0.165;-inkscape-stroke:none"
           d="M 114.57109,118.64532 75.017371,111.97003"
           id="path42" />
        <path
           style="color:#000000;fill:#000000;stroke-dasharray:0.165, 0.165;-inkscape-stroke:none"
           d="m 75.056641,111.8418 -0.04297,0.26172 0.162109,0.0273 0.04492,-0.26172 z m 0.326171,0.0566 -0.04492,0.25976 0.164062,0.0274 0.04297,-0.25977 z m 0.324219,0.0547 -0.04297,0.25976 0.16211,0.0273 0.04492,-0.25976 z m 0.326172,0.0547 -0.04297,0.25977 0.16211,0.0273 0.04297,-0.25976 z m 0.326172,0.0547 -0.04492,0.25977 0.162109,0.0293 0.04492,-0.26172 z m 0.324219,0.0547 -0.04297,0.26172 0.162109,0.0273 0.04492,-0.26172 z m 0.326172,0.0547 -0.04492,0.26171 0.164062,0.0273 0.04297,-0.26172 z m 0.326171,0.0547 -0.04492,0.26172 0.162109,0.0273 0.04492,-0.26172 z m 0.324219,0.0547 -0.04297,0.26172 0.16211,0.0273 0.04297,-0.26172 z m 0.326172,0.0547 -0.04492,0.26172 0.16211,0.0273 0.04492,-0.25977 z m 0.324219,0.0566 -0.04297,0.25976 0.162109,0.0273 0.04492,-0.25977 z m 0.326172,0.0547 -0.04492,0.25976 0.164062,0.0273 0.04297,-0.25977 z m 0.326172,0.0547 -0.04492,0.25977 0.162109,0.0273 0.04492,-0.25976 z m 0.324218,0.0547 -0.04297,0.26172 0.162109,0.0273 0.04297,-0.26172 z m 0.326172,0.0547 -0.04492,0.26172 0.16211,0.0273 0.04492,-0.26172 z m 0.324219,0.0547 -0.04297,0.26171 0.16211,0.0273 0.04492,-0.26172 z m 0.326172,0.0547 -0.04492,0.26172 0.164062,0.0273 0.04297,-0.26172 z m 0.326172,0.0547 -0.04492,0.26172 0.162109,0.0273 0.04492,-0.26172 z m 0.324218,0.0566 -0.04297,0.25977 0.162109,0.0273 0.04297,-0.25976 z m 0.326172,0.0547 -0.04492,0.25976 0.164063,0.0273 0.04297,-0.25977 z m 0.324219,0.0547 -0.04297,0.25976 0.16211,0.0273 0.04492,-0.25977 z m 0.326172,0.0547 -0.04492,0.25977 0.164063,0.0273 0.04297,-0.25976 z m 0.326172,0.0547 -0.04492,0.26172 0.162109,0.0273 0.04492,-0.26171 z m 0.324219,0.0547 -0.04297,0.26172 0.162109,0.0273 0.04297,-0.26172 z m 0.326171,0.0547 -0.04492,0.26172 0.164062,0.0273 0.04297,-0.26172 z m 0.324219,0.0547 -0.04297,0.26172 0.16211,0.0273 0.04492,-0.26172 z m 0.326172,0.0547 -0.04492,0.26172 0.164063,0.0273 0.04297,-0.25976 z m 0.326172,0.0566 -0.04492,0.25977 0.162109,0.0273 0.04492,-0.25976 z m 0.324219,0.0547 -0.04297,0.25977 0.162109,0.0273 0.04297,-0.25977 z m 0.326172,0.0547 -0.04492,0.25976 0.164062,0.0273 0.04297,-0.25977 z m 0.324218,0.0547 -0.04297,0.25977 0.162109,0.0293 0.04492,-0.26172 z m 0.326172,0.0547 -0.04492,0.26172 0.164063,0.0273 0.04297,-0.26171 z m 0.326172,0.0547 -0.04492,0.26172 0.16211,0.0273 0.04492,-0.26172 z m 0.324219,0.0547 -0.04297,0.26172 0.162109,0.0273 0.04492,-0.26172 z m 0.326172,0.0547 -0.04492,0.26172 0.164062,0.0274 0.04297,-0.26172 z m 0.324218,0.0547 -0.04297,0.26172 0.162109,0.0273 0.04492,-0.25976 z m 0.326172,0.0566 -0.04492,0.25977 0.164063,0.0273 0.04297,-0.25976 z m 0.326172,0.0547 -0.04492,0.25977 0.16211,0.0273 0.04492,-0.25977 z m 0.324219,0.0547 -0.04297,0.25976 0.16211,0.0274 0.04492,-0.25977 z m 0.326172,0.0547 -0.04492,0.26171 0.164062,0.0273 0.04297,-0.26172 z m 0.324219,0.0547 -0.04297,0.26172 0.162109,0.0273 0.04492,-0.26172 z m 0.326171,0.0547 -0.04492,0.26172 0.164062,0.0273 0.04297,-0.26172 z m 0.326172,0.0547 -0.04492,0.26172 0.16211,0.0273 0.04492,-0.26172 z m 0.324219,0.0547 -0.04297,0.26171 0.16211,0.0273 0.04492,-0.26172 z m 0.326172,0.0566 -0.04492,0.25976 0.164063,0.0273 0.04297,-0.25977 z m 0.324219,0.0547 -0.04297,0.25977 0.162109,0.0273 0.04492,-0.25976 z m 0.326172,0.0547 -0.04297,0.25977 0.162109,0.0273 0.04297,-0.25977 z m 0.326171,0.0547 -0.04492,0.25976 0.162109,0.0293 0.04492,-0.26172 z m 0.324219,0.0547 -0.04297,0.26171 0.16211,0.0273 0.04492,-0.26172 z m 0.326172,0.0547 -0.04492,0.26172 0.164063,0.0273 0.04297,-0.26172 z m 0.324219,0.0547 -0.04297,0.26172 0.162109,0.0273 0.04492,-0.26172 z m 0.326172,0.0547 -0.04297,0.26172 0.162109,0.0273 0.04297,-0.26172 z m 0.326172,0.0547 -0.04492,0.26171 0.162109,0.0273 0.04492,-0.25977 z m 0.324218,0.0566 -0.04297,0.25976 0.162109,0.0273 0.04492,-0.25977 z m 0.326172,0.0547 -0.04492,0.25977 0.164063,0.0273 0.04297,-0.25976 z m 0.324219,0.0547 -0.04297,0.25977 0.16211,0.0273 0.04492,-0.25976 z m 0.326172,0.0547 -0.04297,0.26172 0.162109,0.0273 0.04297,-0.26172 z m 0.326172,0.0547 -0.04492,0.26172 0.162109,0.0273 L 93.767578,115 Z m 0.324218,0.0547 -0.04297,0.26172 0.162109,0.0273 0.04492,-0.26172 z m 0.326172,0.0547 -0.04492,0.26172 0.164063,0.0273 0.04297,-0.26171 z m 0.326172,0.0547 -0.04492,0.26172 0.16211,0.0273 0.04492,-0.26172 z m 0.324219,0.0566 -0.04297,0.25977 0.16211,0.0273 0.04297,-0.25977 z m 0.326172,0.0547 -0.04492,0.25976 0.162109,0.0273 0.04492,-0.25977 z m 0.324219,0.0547 -0.04297,0.25977 0.162109,0.0273 0.04492,-0.25976 z m 0.326171,0.0547 -0.04492,0.25977 0.164062,0.0293 0.04297,-0.26171 z m 0.326172,0.0547 -0.04492,0.26172 0.16211,0.0273 0.04492,-0.26172 z m 0.324219,0.0547 -0.04297,0.26172 0.16211,0.0273 0.04297,-0.26172 z m 0.326172,0.0547 -0.04492,0.26172 0.164063,0.0274 0.04297,-0.26172 z m 0.324219,0.0547 -0.04297,0.26172 0.162109,0.0273 0.04492,-0.26171 z m 0.326172,0.0547 -0.04492,0.26172 0.164062,0.0273 0.04297,-0.25976 z m 0.326171,0.0566 -0.04492,0.25977 0.162109,0.0273 0.04492,-0.25977 z m 0.324219,0.0547 -0.04297,0.25976 0.16211,0.0274 0.04297,-0.25977 z m 0.326172,0.0547 -0.04492,0.25976 0.164063,0.0273 0.04297,-0.25976 z m 0.324219,0.0547 -0.04297,0.26172 0.162109,0.0273 0.04492,-0.26172 z m 0.326172,0.0547 -0.04492,0.26172 0.164062,0.0273 0.04297,-0.26172 z m 0.326172,0.0547 -0.04492,0.26172 0.162109,0.0273 0.04492,-0.26172 z m 0.324218,0.0547 -0.04297,0.26171 0.162109,0.0273 0.04297,-0.26172 z m 0.326171,0.0547 -0.0449,0.26172 0.16406,0.0273 0.043,-0.26172 z m 0.32422,0.0566 -0.043,0.25977 0.16211,0.0273 0.0449,-0.25976 z m 0.32617,0.0547 -0.0449,0.25977 0.16406,0.0273 0.043,-0.25977 z m 0.32617,0.0547 -0.0449,0.25976 0.16211,0.0273 0.0449,-0.25977 z m 0.32422,0.0547 -0.043,0.25976 0.16211,0.0293 0.0449,-0.26172 z m 0.32617,0.0547 -0.0449,0.26172 0.16407,0.0273 0.043,-0.26172 z m 0.32422,0.0547 -0.043,0.26172 0.16211,0.0273 0.0449,-0.26172 z m 0.32618,0.0547 -0.0449,0.26172 0.16407,0.0273 0.043,-0.26172 z m 0.32617,0.0547 -0.0449,0.26171 0.1621,0.0273 0.0449,-0.26172 z m 0.32422,0.0547 -0.043,0.26172 0.16211,0.0273 0.0449,-0.25977 z m 0.32617,0.0566 -0.0449,0.25977 0.16406,0.0273 0.043,-0.25976 z m 0.32422,0.0547 -0.043,0.25977 0.16211,0.0273 0.0449,-0.25976 z m 0.32617,0.0547 -0.0449,0.25976 0.16406,0.0273 0.043,-0.25977 z m 0.32617,0.0547 -0.0449,0.26172 0.16211,0.0273 0.0449,-0.26172 z m 0.32422,0.0547 -0.043,0.26172 0.16211,0.0273 0.0449,-0.26172 z m 0.32617,0.0547 -0.0449,0.26172 0.16406,0.0273 0.043,-0.26171 z m 0.32422,0.0547 -0.043,0.26172 0.16211,0.0273 0.0449,-0.26172 z m 0.32617,0.0547 -0.043,0.26172 0.16211,0.0273 0.043,-0.26172 z m 0.32617,0.0566 -0.0449,0.25976 0.16211,0.0273 0.0449,-0.25977 z m 0.32422,0.0547 -0.043,0.25977 0.16211,0.0273 0.0449,-0.25976 z m 0.32617,0.0547 -0.0449,0.25977 0.16406,0.0273 0.043,-0.25976 z m 0.32422,0.0547 -0.043,0.25977 0.16211,0.0293 0.0449,-0.26172 z m 0.32617,0.0547 -0.043,0.26172 0.16211,0.0273 0.043,-0.26172 z m 0.32618,0.0547 -0.0449,0.26172 0.16211,0.0274 0.0449,-0.26172 z m 0.32422,0.0547 -0.043,0.26172 0.16211,0.0273 0.0449,-0.26171 z m 0.32617,0.0547 -0.0449,0.26172 0.16406,0.0273 0.043,-0.26172 z m 0.32422,0.0547 -0.043,0.26172 0.16211,0.0273 0.0449,-0.25977 z m 0.32617,0.0566 -0.043,0.25976 0.16211,0.0274 0.043,-0.25977 z m 0.32617,0.0547 -0.0449,0.25976 0.16211,0.0273 0.0449,-0.25976 z m 0.32422,0.0547 -0.043,0.25977 0.16211,0.0273 0.0449,-0.25976 z m 0.32617,0.0547 -0.0449,0.25977 0.16406,0.0293 0.043,-0.26172 z m 0.32617,0.0547 -0.0449,0.26172 0.16211,0.0273 0.0449,-0.26172 z m 0.32422,0.0547 -0.043,0.26171 0.16211,0.0273 0.043,-0.26172 z m 0.32617,0.0547 -0.0449,0.26172 0.16211,0.0273 0.0449,-0.26172 z m 0.32422,0.0547 -0.043,0.26172 0.16211,0.0273 0.0449,-0.26172 z m 0.32617,0.0566 -0.0449,0.25977 0.16406,0.0273 0.043,-0.25977 z m 0.32618,0.0547 -0.0449,0.25976 0.16211,0.0273 0.0449,-0.25977 z m 0.32421,0.0547 -0.043,0.25976 0.1621,0.0273 0.043,-0.25977 z m 0.32618,0.0547 -0.0449,0.25977 0.16407,0.0273 0.043,-0.25976 z m 0.32421,0.0547 -0.043,0.26172 0.16211,0.0273 0.0449,-0.26172 z m 0.32618,0.0547 -0.0449,0.26172 0.16407,0.0273 0.043,-0.26172 z m 0.32617,0.0547 -0.0449,0.26171 0.16211,0.0273 0.0449,-0.26172 z m 0.32422,0.0547 -0.043,0.26172 0.16211,0.0273 0.043,-0.26172 z m 0.32617,0.0547 -0.0449,0.26172 0.16406,0.0273 0.043,-0.26172 z m 0.32422,0.0566 -0.043,0.25977 0.16211,0.0273 0.0449,-0.25976 z"
           id="path43" />
      </g>
    </g>
    <text
       xml:space="preserve"
       style="font-style:normal;font-variant:normal;font-weight:normal;font-stretch:normal;font-size:3.175px;font-family:'Tlwg Typo';-inkscape-font-specification:'Tlwg Typo';fill:#000000;stroke-width:0.264583"
       x="49.733299"
       y="111.91769"
       id="text6"><tspan
         id="tspan6"
         style="font-style:normal;font-variant:normal;font-weight:normal;font-stretch:normal;font-family:'Tlwg Typo';-inkscape-font-specification:'Tlwg Typo';stroke-width:0.264583"
         x="49.733299"
         y="111.91769">random_spikes</tspan></text>
    <text
       xml:space="preserve"
       style="font-style:normal;font-variant:normal;font-weight:normal;font-stretch:normal;font-size:3.175px;font-family:'Tlwg Typo';-inkscape-font-specification:'Tlwg Typo';fill:#000000;stroke-width:0.264583"
       x="49.641632"
       y="119.61055"
       id="text6-6"><tspan
         id="tspan6-2"
         style="font-style:normal;font-variant:normal;font-weight:normal;font-stretch:normal;font-family:'Tlwg Typo';-inkscape-font-specification:'Tlwg Typo';stroke-width:0.264583"
         x="49.641632"
         y="119.61055">isi_histograms</tspan></text>
    <text
       xml:space="preserve"
       style="font-style:normal;font-variant:normal;font-weight:normal;font-stretch:normal;font-size:3.175px;font-family:'Tlwg Typo';-inkscape-font-specification:'Tlwg Typo';fill:#000000;stroke-width:0.264583"
       x="49.771389"
       y="124.28388"
       id="text6-6-7"><tspan
         id="tspan6-2-9"
         style="font-style:normal;font-variant:normal;font-weight:normal;font-stretch:normal;font-family:'Tlwg Typo';-inkscape-font-specification:'Tlwg Typo';stroke-width:0.264583"
         x="49.771389"
         y="124.28388">correlograms</tspan></text>
    <text
       xml:space="preserve"
       style="font-style:normal;font-variant:normal;font-weight:normal;font-stretch:normal;font-size:3.175px;font-family:'Tlwg Typo';-inkscape-font-specification:'Tlwg Typo';fill:#000000;stroke-width:0.264583"
       x="50.3629"
       y="103.01687"
       id="text1-4-4-3-2-3-0-7-6"><tspan
         id="tspan1-7-0-6-3-2-7-2-2"
         style="font-style:normal;font-variant:normal;font-weight:normal;font-stretch:normal;font-family:'Tlwg Typo';-inkscape-font-specification:'Tlwg Typo';stroke-width:0.264583"
         x="50.3629"
         y="103.01687">parent</tspan></text>
    <g
       id="path6-0-8"
       transform="translate(1.0774309)">
      <path
         style="color:#000000;fill:#000000;-inkscape-stroke:none"
         d="m 61.811291,102.22935 9.428649,0.0636"
         id="path34" />
      <path
         style="color:#000000;fill:#000000;-inkscape-stroke:none"
         d="m 61.8125,102.14648 -0.002,0.16602 9.429687,0.0625 v -0.16406 z"
         id="path35" />
      <g
         id="g33">
        <path
           style="color:#000000;fill:#000000;-inkscape-stroke:none"
           d="m 66.666016,101.70898 -0.558594,0.54883 0.550781,0.55664 0.117188,-0.11523 -0.433594,-0.43945 0.439453,-0.4336 z"
           id="path33" />
      </g>
    </g>
    <text
       xml:space="preserve"
       style="font-style:normal;font-variant:normal;font-weight:normal;font-stretch:normal;font-size:3.175px;font-family:'Tlwg Typo';-inkscape-font-specification:'Tlwg Typo';fill:#000000;stroke-width:0.264583"
       x="74.167419"
       y="103.21054"
       id="text6-7"><tspan
         id="tspan6-4"
         style="font-style:normal;font-variant:normal;font-weight:normal;font-stretch:normal;font-family:'Tlwg Typo';-inkscape-font-specification:'Tlwg Typo';stroke-width:0.264583"
         x="74.167419"
         y="103.21054">child</tspan></text>
    <rect
       style="fill:none;fill-opacity:1;stroke:#000000;stroke-width:0.165;stroke-dasharray:none;stroke-opacity:1"
       id="rect8"
       width="34.958729"
       height="4.901247"
       x="50"
       y="99.967758" />
    <path
       style="fill:#000000;stroke:#000000;stroke-width:0.165;stroke-dasharray:none;stroke-dashoffset:0;stroke-opacity:1"
       d="m 113.19994,101.20522 -38.195341,9.26546"
       id="path7"
       sodipodi:nodetypes="cc" />
    <text
       xml:space="preserve"
       style="font-style:normal;font-variant:normal;font-weight:normal;font-stretch:normal;font-size:3.175px;font-family:'Tlwg Typo';-inkscape-font-specification:'Tlwg Typo';fill:#000000;stroke-width:0.264583"
       x="159.86348"
       y="121.7437"
       id="text8"><tspan
         id="tspan8"
         style="font-style:normal;font-variant:normal;font-weight:normal;font-stretch:normal;font-family:'Tlwg Typo';-inkscape-font-specification:'Tlwg Typo';stroke-width:0.264583"
         x="159.86348"
         y="121.7437">template_similarity</tspan></text>
    <text
       xml:space="preserve"
       style="font-style:normal;font-variant:normal;font-weight:normal;font-stretch:normal;font-size:3.175px;font-family:'Tlwg Typo';-inkscape-font-specification:'Tlwg Typo';fill:#000000;stroke-width:0.264583"
       x="159.86348"
       y="127.03537"
       id="text9"><tspan
         id="tspan9"
         style="font-style:normal;font-variant:normal;font-weight:normal;font-stretch:normal;font-family:'Tlwg Typo';-inkscape-font-specification:'Tlwg Typo';stroke-width:0.264583"
         x="159.86348"
         y="127.03537">unit_locations</tspan></text>
    <path
       style="fill:#000000;stroke:#000000;stroke-width:0.165;stroke-dasharray:none;stroke-dashoffset:0;stroke-opacity:1"
       d="m 132.53134,119.32585 26.39442,6.54049"
       id="path12"
       sodipodi:nodetypes="cc" />
    <path
       style="fill:#000000;stroke:#000000;stroke-width:0.165;stroke-dasharray:none;stroke-dashoffset:0;stroke-opacity:1"
       d="m 132.53274,119.71487 26.62176,10.6017"
       id="path13"
       sodipodi:nodetypes="cc" />
    <g
       id="g14"
       transform="rotate(-7.8810965,186.81109,101.9464)">
      <path
         style="color:#000000;fill:#000000;-inkscape-stroke:none"
         d="m 145.59375,105.61133 -0.36328,0.69336 0.69336,0.36328 0.0762,-0.14649 -0.54688,-0.28515 0.28516,-0.54883 z"
         id="path14" />
    </g>
    <g
       id="g36"
       transform="rotate(-12.09624,162.36621,107.87522)">
      <path
         style="color:#000000;fill:#000000;-inkscape-stroke:none"
         d="m 145.59375,105.61133 -0.36328,0.69336 0.69336,0.36328 0.0762,-0.14649 -0.54688,-0.28515 0.28516,-0.54883 z"
         id="path36" />
    </g>
    <g
       id="g37"
       transform="rotate(2.1110349,130.70276,-1288.1359)">
      <path
         style="color:#000000;fill:#000000;-inkscape-stroke:none"
         d="m 145.59375,105.61133 -0.36328,0.69336 0.69336,0.36328 0.0762,-0.14649 -0.54688,-0.28515 0.28516,-0.54883 z"
         id="path37" />
    </g>
    <g
       id="g38"
       transform="rotate(30.8193,103.53415,18.197389)">
      <path
         style="color:#000000;fill:#000000;-inkscape-stroke:none"
         d="m 145.59375,105.61133 -0.36328,0.69336 0.69336,0.36328 0.0762,-0.14649 -0.54688,-0.28515 0.28516,-0.54883 z"
         id="path38" />
    </g>
    <g
       id="g39"
       transform="rotate(44.359088,116.82937,64.472034)">
      <path
         style="color:#000000;fill:#000000;-inkscape-stroke:none"
         d="m 145.59375,105.61133 -0.36328,0.69336 0.69336,0.36328 0.0762,-0.14649 -0.54688,-0.28515 0.28516,-0.54883 z"
         id="path39" />
    </g>
  </g>
</svg>
