<?xml version="1.0" encoding="UTF-8" standalone="no"?>
<!-- Created with Inkscape (http://www.inkscape.org/) -->

<svg
   width="242.52583mm"
   height="50.636322mm"
   viewBox="0 0 242.52583 50.636322"
   version="1.1"
   id="svg16973"
   xml:space="preserve"
   xmlns="http://www.w3.org/2000/svg"
   xmlns:svg="http://www.w3.org/2000/svg"><defs
     id="defs16970"><clipPath
       clipPathUnits="userSpaceOnUse"
       id="clipPath21483"><path
         d="M 1.883812,1.278 H 291.87991 v 160 H 1.883812 Z"
         id="path21481" /></clipPath></defs><g
     id="layer1"
     transform="translate(12.762499,-127.36679)"><circle
       style="fill:#ff0303;fill-opacity:1;stroke:#000000;stroke-width:0.529;stroke-dasharray:none;stroke-opacity:1"
       id="circle4293"
       cx="79.318527"
       cy="137.39783"
       r="2.7405365" /><circle
       style="fill:#ff0303;fill-opacity:1;stroke:#000000;stroke-width:0.529;stroke-dasharray:none;stroke-opacity:1"
       id="circle17635"
       cx="86.344543"
       cy="149.86334"
       r="2.7405365" /><circle
       style="fill:#ff0303;fill-opacity:1;stroke:#000000;stroke-width:0.529;stroke-dasharray:none;stroke-opacity:1"
       id="circle17637"
       cx="101.75645"
       cy="149.6367"
       r="2.7405365" /><circle
       style="fill:#ff0303;fill-opacity:1;stroke:#000000;stroke-width:0.529;stroke-dasharray:none;stroke-opacity:1"
       id="circle17639"
       cx="70.479347"
       cy="148.50348"
       r="2.7405365" /><circle
       style="fill:#ff0303;fill-opacity:1;stroke:#000000;stroke-width:0.529;stroke-dasharray:none;stroke-opacity:1"
       id="circle17641"
       cx="71.385925"
       cy="161.64893"
       r="2.7405365" /><circle
       style="fill:#ff0303;fill-opacity:1;stroke:#000000;stroke-width:0.529;stroke-dasharray:none;stroke-opacity:1"
       id="circle17643"
       cx="86.344543"
       cy="168.22165"
       r="2.7405365" /><circle
       style="fill:#ff0303;fill-opacity:1;stroke:#000000;stroke-width:0.529;stroke-dasharray:none;stroke-opacity:1"
       id="circle17645"
       cx="105.38277"
       cy="167.54172"
       r="2.7405365" /><circle
       style="fill:#ff0303;fill-opacity:1;stroke:#000000;stroke-width:0.529;stroke-dasharray:none;stroke-opacity:1"
       id="circle17647"
       cx="58.693768"
       cy="154.84956"
       r="2.7405365" /><circle
       style="fill:#ff0303;fill-opacity:1;stroke:#000000;stroke-width:0.529;stroke-dasharray:none;stroke-opacity:1"
       id="circle17649"
       cx="60.506931"
       cy="137.39784"
       r="2.7405365" /><circle
       style="fill:#035eff;fill-opacity:1;stroke:#000000;stroke-width:0.529;stroke-dasharray:none;stroke-opacity:1"
       id="circle17651"
       cx="97.676819"
       cy="135.58467"
       r="2.7405365" /><circle
       style="fill:#035eff;fill-opacity:1;stroke:#000000;stroke-width:0.529;stroke-dasharray:none;stroke-opacity:1"
       id="circle17653"
       cx="112.18214"
       cy="133.7715"
       r="2.7405365" /><circle
       style="fill:#035eff;fill-opacity:1;stroke:#000000;stroke-width:0.529;stroke-dasharray:none;stroke-opacity:1"
       id="circle17655"
       cx="118.52822"
       cy="148.73012"
       r="2.7405365" /><circle
       style="fill:#035eff;fill-opacity:1;stroke:#000000;stroke-width:0.529;stroke-dasharray:none;stroke-opacity:1"
       id="circle17657"
       cx="121.24797"
       cy="165.72855"
       r="2.7405365" /><circle
       style="fill:#035eff;fill-opacity:1;stroke:#000000;stroke-width:0.529;stroke-dasharray:none;stroke-opacity:1"
       id="circle17659"
       cx="128.04735"
       cy="130.37183"
       r="2.7405365" /><circle
       style="fill:#035eff;fill-opacity:1;stroke:#000000;stroke-width:0.529;stroke-dasharray:none;stroke-opacity:1"
       id="circle17661"
       cx="130.08716"
       cy="141.7041"
       r="2.7405365" /><circle
       style="fill:#4ae200;fill-opacity:1;stroke:#000000;stroke-width:0.529;stroke-dasharray:none;stroke-opacity:1"
       id="circle17663"
       cx="137.33983"
       cy="163.0088"
       r="2.7405365" /><circle
       style="fill:#035eff;fill-opacity:1;stroke:#000000;stroke-width:0.529;stroke-dasharray:none;stroke-opacity:1"
       id="circle17665"
       cx="128.274"
       cy="155.0762"
       r="2.7405365" /><path
       style="fill:#035eff;fill-opacity:1;stroke:#000000;stroke-width:0.429;stroke-dasharray:none;stroke-opacity:1"
       d="M 101.02409,146.66917 98.372277,138.5173"
       id="path17721" /><path
       style="fill:#035eff;fill-opacity:1;stroke:#000000;stroke-width:0.429001;stroke-dasharray:none;stroke-opacity:1"
       d="M 98.863354,149.81206 H 89.140038"
       id="path17723" /><path
       style="fill:#035eff;fill-opacity:1;stroke:#000000;stroke-width:0.429001;stroke-dasharray:none;stroke-opacity:1"
       d="m 104.55984,149.61563 h 11.09833"
       id="path17725" /><text
       xml:space="preserve"
       style="font-size:10.5485px;line-height:1;font-family:'Ubuntu Mono';-inkscape-font-specification:'Ubuntu Mono';fill:#ff0303;fill-opacity:1;stroke:none;stroke-width:0.256553;stroke-dasharray:none;stroke-opacity:1"
       x="104.08715"
       y="155.77457"
       id="text17781"><tspan
         id="tspan17779"
         style="fill:#ff0303;fill-opacity:1;stroke:none;stroke-width:0.256552"
         x="104.08715"
         y="155.77457">a<tspan
   style="font-style:normal;font-variant:normal;font-weight:normal;font-stretch:normal;font-size:10.5485px;font-family:'Ubuntu Mono';-inkscape-font-specification:'Ubuntu Mono, Normal';font-variant-ligatures:normal;font-variant-position:sub;font-variant-caps:normal;font-variant-numeric:normal;font-variant-east-asian:normal"
   id="tspan18039">1</tspan></tspan></text><text
       xml:space="preserve"
       style="font-size:10.5485px;line-height:1;font-family:'Ubuntu Mono';-inkscape-font-specification:'Ubuntu Mono';fill:#035eff;fill-opacity:1;stroke:none;stroke-width:0.256553;stroke-dasharray:none;stroke-opacity:1"
       x="113.90374"
       y="176.38919"
       id="text17781-7"><tspan
         id="tspan17779-6"
         style="fill:#035eff;fill-opacity:1;stroke:none;stroke-width:0.256552"
         x="113.90374"
         y="176.38919"><tspan
           style="font-style:normal;font-variant:normal;font-weight:normal;font-stretch:normal;font-size:10.5485px;font-family:'Ubuntu Mono';-inkscape-font-specification:'Ubuntu Mono, Normal';font-variant-ligatures:normal;font-variant-position:sub;font-variant-caps:normal;font-variant-numeric:normal;font-variant-east-asian:normal;fill:#035eff;fill-opacity:1"
           id="tspan18039-1">b1</tspan></tspan></text><circle
       style="fill:#4ae200;fill-opacity:1;stroke:#000000;stroke-width:0.529;stroke-dasharray:none;stroke-opacity:1"
       id="circle18142"
       cx="137.33983"
       cy="163.0088"
       r="2.7405365" /><circle
       style="fill:#4ae200;fill-opacity:1;stroke:#000000;stroke-width:0.529;stroke-dasharray:none;stroke-opacity:1"
       id="circle18144"
       cx="141.32416"
       cy="148.56563"
       r="2.7405365" /><circle
       style="fill:#4ae200;fill-opacity:1;stroke:#000000;stroke-width:0.529;stroke-dasharray:none;stroke-opacity:1"
       id="circle18146"
       cx="149.95685"
       cy="163.34084"
       r="2.7405365" /><circle
       style="fill:#4ae200;fill-opacity:1;stroke:#000000;stroke-width:0.529;stroke-dasharray:none;stroke-opacity:1"
       id="circle18148"
       cx="153.27713"
       cy="150.39178"
       r="2.7405365" /><circle
       style="fill:#4ae200;fill-opacity:1;stroke:#000000;stroke-width:0.529;stroke-dasharray:none;stroke-opacity:1"
       id="circle18150"
       cx="149.79085"
       cy="138.43881"
       r="2.7405365" /><path
       style="fill:#4ae200;fill-opacity:1;stroke:none;stroke-width:0.429001;stroke-dasharray:none;stroke-opacity:1"
       d="m 108.4363,167.32822 9.9436,-1.02865"
       id="path18206" /><path
       style="fill:#4ae200;fill-opacity:1;stroke:#000000;stroke-width:0.429001;stroke-dasharray:none;stroke-opacity:1"
       d="m 108.32201,166.98534 9.8293,-0.91435"
       id="path18208" /><path
       style="fill:#4ae200;fill-opacity:1;stroke:#000000;stroke-width:0.429001;stroke-dasharray:none;stroke-opacity:1"
       d="m 122.72307,163.21363 3.88601,-5.9433"
       id="path18210" /><path
       style="fill:#4ae200;fill-opacity:1;stroke:#000000;stroke-width:0.429001;stroke-dasharray:none;stroke-opacity:1"
       d="m 123.98031,165.49951 10.28647,-2.05729"
       id="path18212" /><text
       xml:space="preserve"
       style="font-style:normal;font-variant:normal;font-weight:normal;font-stretch:normal;font-size:10.5485px;line-height:1;font-family:'Ubuntu Mono';-inkscape-font-specification:'Ubuntu Mono, Normal';font-variant-ligatures:normal;font-variant-position:sub;font-variant-caps:normal;font-variant-numeric:normal;font-variant-east-asian:normal;fill:#d10000;fill-opacity:1;stroke:none;stroke-width:0.429001;stroke-dasharray:none;stroke-opacity:1"
       x="-4.2477312"
       y="140.72821"
       id="text18994"><tspan
         style="fill:#d10000;fill-opacity:1;stroke:none;stroke-width:0.429"
         x="-4.2477312"
         y="140.72821"
         id="tspan18996">Cluster A</tspan></text><text
       xml:space="preserve"
       style="font-style:normal;font-variant:normal;font-weight:normal;font-stretch:normal;font-size:10.5485px;line-height:1;font-family:'Ubuntu Mono';-inkscape-font-specification:'Ubuntu Mono, Normal';font-variant-ligatures:normal;font-variant-position:sub;font-variant-caps:normal;font-variant-numeric:normal;font-variant-east-asian:normal;fill:#035eff;fill-opacity:1;stroke:none;stroke-width:0.429001;stroke-dasharray:none;stroke-opacity:1"
       x="-4.2477312"
       y="154.25737"
       id="text19052"><tspan
         style="fill:#035eff;fill-opacity:1;stroke:none;stroke-width:0.429"
         x="-4.2477312"
         y="154.25737"
         id="tspan19050">Cluster B</tspan></text><text
       xml:space="preserve"
       style="font-style:normal;font-variant:normal;font-weight:normal;font-stretch:normal;font-size:10.5485px;line-height:1;font-family:'Ubuntu Mono';-inkscape-font-specification:'Ubuntu Mono, Normal';font-variant-ligatures:normal;font-variant-position:sub;font-variant-caps:normal;font-variant-numeric:normal;font-variant-east-asian:normal;fill:#38ab00;fill-opacity:1;stroke:none;stroke-width:0.429001;stroke-dasharray:none;stroke-opacity:1"
       x="-4.2477312"
       y="166.72821"
       id="text19125"><tspan
         style="fill:#38ab00;fill-opacity:1;stroke:none;stroke-width:0.429"
         x="-4.2477312"
         y="166.72821"
         id="tspan19123">Cluster C</tspan></text><text
       xml:space="preserve"
       style="font-size:10.5485px;line-height:1;font-family:'Ubuntu Mono';-inkscape-font-specification:'Ubuntu Mono';fill:#38ab00;fill-opacity:1;stroke:none;stroke-width:0.256553;stroke-dasharray:none;stroke-opacity:1"
       x="137.83669"
       y="134.27638"
       id="text20166"><tspan
         id="tspan20164"
         style="fill:#38ab00;fill-opacity:1;stroke:none;stroke-width:0.256552"
         x="137.83669"
         y="134.27638"><tspan
           style="font-style:normal;font-variant:normal;font-weight:normal;font-stretch:normal;font-size:10.5485px;font-family:'Ubuntu Mono';-inkscape-font-specification:'Ubuntu Mono, Normal';font-variant-ligatures:normal;font-variant-position:sub;font-variant-caps:normal;font-variant-numeric:normal;font-variant-east-asian:normal;fill:#38ab00;fill-opacity:1"
           id="tspan20162">c1</tspan></tspan></text><path
       style="fill:#38ab00;fill-opacity:1;stroke:#000000;stroke-width:0.429001;stroke-dasharray:none;stroke-opacity:1"
       d="m 146.91139,138.60246 -13.84821,2.5288"
       id="path20360" /><path
       style="fill:#38ab00;fill-opacity:1;stroke:#000000;stroke-width:0.429001;stroke-dasharray:none;stroke-opacity:1"
       d="m 143.29881,146.79097 4.93719,-6.02096"
       id="path20362" /><path
       style="fill:#38ab00;fill-opacity:1;stroke:#000000;stroke-width:0.429001;stroke-dasharray:none;stroke-opacity:1"
       d="m 150.88522,141.13126 1.56545,6.38222"
       id="path20364" /><circle
       style="fill:#ff0303;fill-opacity:1;stroke:#000000;stroke-width:0.529;stroke-dasharray:none;stroke-opacity:1"
       id="circle22005"
       cx="-9.7574625"
       cy="137.53419"
       r="2.7405365" /><circle
       style="fill:#035eff;fill-opacity:1;stroke:#000000;stroke-width:0.529;stroke-dasharray:none;stroke-opacity:1"
       id="circle22007"
       cx="-9.7574625"
       cy="150.53419"
       r="2.7405365" /><circle
       style="fill:#4ae200;fill-opacity:1;stroke:#000000;stroke-width:0.529;stroke-dasharray:none;stroke-opacity:1"
       id="circle22009"
       cx="-9.7574625"
       cy="163.53419"
       r="2.7405365" /></g><g
     id="g21477"
     transform="matrix(0.21705376,0,0,-0.21705377,179.21868,39.380493)"><g
       id="g21479"
       clip-path="url(#clipPath21483)"><path
         d="m 28.53541,149.536 c 0.3593,1.437 1.0047,2.55 3.8781,2.658 0.1797,0 0.6109,0.036 0.6109,0.718 0,0.036 0,0.396 -0.4672,0.396 -1.1843,0 -2.4421,-0.108 -3.6265,-0.108 -1.2219,0 -2.4781,0.108 -3.6641,0.108 -0.2156,0 -0.6469,0 -0.6469,-0.719 0,-0.395 0.3594,-0.395 0.6469,-0.395 2.0469,-0.036 2.4422,-0.789 2.4422,-1.58 0,-0.108 -0.0719,-0.647 -0.1078,-0.755 l -4.0219,-15.981 -7.9375,18.747 c -0.2875,0.647 -0.3234,0.683 -1.1484,0.683 H 9.680692 c -0.71875,0 -1.04219,0 -1.04219,-0.719 0,-0.395 0.32344,-0.395 1.00625,-0.395 0.17812,0 2.442158,0 2.442158,-0.324 L 7.274442,132.584 c -0.35938,-1.436 -0.97032,-2.586 -3.87969,-2.692 -0.21563,0 -0.61094,-0.036 -0.61094,-0.719 0,-0.251 0.17969,-0.395 0.46719,-0.395 1.15,0 2.40625,0.108 3.59219,0.108 1.22031,0 2.51406,-0.108 3.698428,-0.108 0.17969,0 0.64689,0 0.64689,0.719 0,0.359 -0.32345,0.395 -0.71876,0.395 -2.082808,0.072 -2.370308,0.861 -2.370308,1.58 0,0.251 0.03593,0.431 0.14375,0.826 l 4.740618,18.963 c 0.1438,-0.216 0.1438,-0.288 0.3234,-0.647 l 8.9422,-21.153 c 0.2516,-0.611 0.3594,-0.683 0.6828,-0.683 0.3954,0 0.3954,0.108 0.575,0.755 l 5.0282,20.003"
         style="fill:#000000;fill-opacity:1;fill-rule:nonzero;stroke:none"
         id="path21485" /><path
         d="m 61.23541,149.536 c 0.3593,1.437 1.0047,2.55 3.8781,2.658 0.1797,0 0.6109,0.036 0.6109,0.718 0,0.036 0,0.396 -0.4672,0.396 -1.1843,0 -2.4421,-0.108 -3.6265,-0.108 -1.2219,0 -2.4781,0.108 -3.6641,0.108 -0.2156,0 -0.6469,0 -0.6469,-0.719 0,-0.395 0.3594,-0.395 0.6469,-0.395 2.0469,-0.036 2.4422,-0.789 2.4422,-1.58 0,-0.108 -0.0719,-0.647 -0.1078,-0.755 l -4.0219,-15.981 -7.9375,18.747 c -0.2875,0.647 -0.3234,0.683 -1.1484,0.683 h -4.8125 c -0.7188,0 -1.0422,0 -1.0422,-0.719 0,-0.395 0.3234,-0.395 1.0062,-0.395 0.1782,0 2.4422,0 2.4422,-0.324 l -4.8125,-19.286 c -0.3593,-1.436 -0.9703,-2.586 -3.8797,-2.692 -0.2156,0 -0.6109,-0.036 -0.6109,-0.719 0,-0.251 0.1797,-0.395 0.4672,-0.395 1.15,0 2.4062,0.108 3.5922,0.108 1.2203,0 2.514,-0.108 3.6984,-0.108 0.1797,0 0.6469,0 0.6469,0.719 0,0.359 -0.3234,0.395 -0.7188,0.395 -2.0828,0.072 -2.3703,0.861 -2.3703,1.58 0,0.251 0.036,0.431 0.1438,0.826 l 4.7406,18.963 c 0.1438,-0.216 0.1438,-0.288 0.3234,-0.647 l 8.9422,-21.153 c 0.2516,-0.611 0.3594,-0.683 0.6828,-0.683 0.3954,0 0.3954,0.108 0.575,0.755 l 5.0282,20.003"
         style="fill:#000000;fill-opacity:1;fill-rule:nonzero;stroke:none"
         id="path21487" /><path
         d="m 79.69161,151.272 c 0,2.181 -1.0781,3.459 -3.7594,3.459 -2.2312,0 -3.4593,-1.328 -4.0109,-2.281 h -0.025 v 8.622 l -3.7594,-0.275 v -0.903 c 1.6797,0 1.8797,-0.175 1.8797,-1.403 v -12.833 c 0,-1.078 -0.25,-1.078 -1.8797,-1.078 v -0.902 c 0.05,0 1.8047,0.1 2.8578,0.1 0.9266,0 2.6563,-0.075 2.8829,-0.1 v 0.902 c -1.6297,0 -1.8813,0 -1.8813,1.078 v 4.512 c 0,2.631 2.0813,3.86 3.7359,3.86 1.7532,0 1.9797,-1.379 1.9797,-2.658 v -5.714 c 0,-1.078 -0.2515,-1.078 -1.8797,-1.078 v -0.902 c 0.05,0 1.8047,0.1 2.8563,0.1 0.9281,0 2.6578,-0.075 2.8828,-0.1 v 0.902 c -1.6297,0 -1.8797,0 -1.8797,1.078 v 5.614"
         style="fill:#000000;fill-opacity:1;fill-rule:nonzero;stroke:none"
         id="path21489" /><path
         d="m 87.97291,159.142 c 0,0.727 -0.6016,1.428 -1.4547,1.428 -0.7516,0 -1.4281,-0.601 -1.4281,-1.428 0,-0.901 0.7265,-1.453 1.4281,-1.453 0.8031,0 1.4547,0.627 1.4547,1.453 z m -3.811,-4.687 v -0.902 c 1.5797,0 1.8047,-0.15 1.8047,-1.378 v -6.517 c 0,-1.078 -0.25,-1.078 -1.8797,-1.078 v -0.902 c 0.05,0 1.8047,0.1 2.8078,0.1 0.8766,0 1.7797,-0.025 2.6563,-0.1 v 0.902 c -1.4531,0 -1.7047,0 -1.7047,1.053 v 9.098 l -3.6844,-0.276"
         style="fill:#000000;fill-opacity:1;fill-rule:nonzero;stroke:none"
         id="path21491" /><path
         d="m 95.82131,153.578 h 3.9109 v 0.903 h -3.9109 v 4.611 h -0.8516 c -0.025,-2.256 -1.0531,-4.737 -3.4593,-4.812 v -0.702 h 2.3312 v -6.767 c 0,-2.806 2.1047,-3.383 3.5094,-3.383 1.6781,0 2.83119,1.428 2.83119,3.408 v 1.378 h -0.85149 v -1.353 c 0,-1.705 -0.8016,-2.631 -1.7797,-2.631 -1.7297,0 -1.7297,2.104 -1.7297,2.556 v 6.792"
         style="fill:#000000;fill-opacity:1;fill-rule:nonzero;stroke:none"
         id="path21493" /><path
         d="m 69.72601,128.35 c 1.9547,0 3.3594,-1.355 3.3594,-4.036 0,-3.108 -1.8047,-4.036 -3.2594,-4.036 -1.0016,0 -3.2078,0.277 -4.2609,1.755 1.1781,0.05 1.4546,0.878 1.4546,1.404 0,0.802 -0.6015,1.379 -1.3796,1.379 -0.7016,0 -1.4032,-0.427 -1.4032,-1.455 0,-2.355 2.6063,-3.885 5.6391,-3.885 3.4844,0 5.8906,2.332 5.8906,4.838 0,1.955 -1.6047,3.909 -4.3609,4.486 2.6312,0.953 3.5844,2.833 3.5844,4.361 0,1.981 -2.2813,3.459 -5.0641,3.459 -2.7813,0 -4.9125,-1.353 -4.9125,-3.358 0,-0.853 0.5516,-1.329 1.3047,-1.329 0.7765,0 1.2781,0.576 1.2781,1.278 0,0.728 -0.5016,1.253 -1.2781,1.305 0.8765,1.101 2.6062,1.378 3.5328,1.378 1.1281,0 2.7078,-0.552 2.7078,-2.733 0,-1.052 -0.3516,-2.205 -1.0031,-2.981 -0.8266,-0.954 -1.5281,-1.004 -2.7813,-1.079 -0.6265,-0.05 -0.6781,-0.05 -0.8031,-0.075 -0.05,0 -0.25,-0.05 -0.25,-0.326 0,-0.35 0.225,-0.35 0.6516,-0.35 h 1.3531"
         style="fill:#000000;fill-opacity:1;fill-rule:nonzero;stroke:none"
         id="path21495" /><path
         d="m 115.6718,120.159 c 0,0.108 0,0.18 -0.611,0.789 -4.489,4.525 -5.638,11.314 -5.638,16.808 0,6.25 1.364,12.499 5.781,16.988 0.468,0.431 0.468,0.503 0.468,0.611 0,0.251 -0.144,0.359 -0.36,0.359 -0.359,0 -3.59,-2.442 -5.709,-7.003 -1.833,-3.952 -2.263,-7.938 -2.263,-10.955 0,-2.801 0.394,-7.147 2.371,-11.205 2.154,-4.417 5.242,-6.751 5.601,-6.751 0.216,0 0.36,0.108 0.36,0.359"
         style="fill:#000000;fill-opacity:1;fill-rule:nonzero;stroke:none"
         id="path21497" /><path
         d="m 131.1788,142.353 c -0.645,1.33 -1.687,2.298 -3.303,2.298 -4.201,0 -8.656,-5.278 -8.656,-10.521 0,-3.377 1.977,-5.747 4.777,-5.747 0.718,0 2.514,0.143 4.668,2.693 0.288,-1.507 1.546,-2.693 3.269,-2.693 1.258,0 2.083,0.826 2.658,1.975 0.611,1.293 1.078,3.484 1.078,3.556 0,0.359 -0.323,0.359 -0.431,0.359 -0.36,0 -0.396,-0.143 -0.503,-0.647 -0.611,-2.334 -1.258,-4.453 -2.73,-4.453 -0.97,0 -1.077,0.933 -1.077,1.652 0,0.791 0.072,1.078 0.466,2.658 0.395,1.508 0.467,1.867 0.791,3.233 l 1.292,5.028 c 0.251,1.004 0.251,1.076 0.251,1.22 0,0.611 -0.429,0.97 -1.04,0.97 -0.863,0 -1.402,-0.79 -1.51,-1.581 z m -2.334,-9.302 c -0.18,-0.646 -0.18,-0.717 -0.717,-1.328 -1.581,-1.975 -3.053,-2.55 -4.06,-2.55 -1.795,0 -2.298,1.975 -2.298,3.375 0,1.797 1.15,6.214 1.977,7.866 1.112,2.119 2.728,3.448 4.165,3.448 2.335,0 2.838,-2.945 2.838,-3.161 0,-0.215 -0.072,-0.431 -0.108,-0.61 l -1.797,-7.04"
         style="fill:#000000;fill-opacity:1;fill-rule:nonzero;stroke:none"
         id="path21499" /><path
         d="m 145.0808,139.419 c 0,0.676 -0.05,0.701 -0.753,0.701 -1.603,-1.579 -3.885,-1.604 -4.913,-1.604 v -0.902 c 0.602,0 2.257,0 3.635,0.702 v -12.783 c 0,-0.827 0,-1.153 -2.507,-1.153 h -0.951 v -0.902 c 0.45,0.025 3.533,0.1 4.461,0.1 0.776,0 3.934,-0.075 4.486,-0.1 v 0.902 h -0.952 c -2.506,0 -2.506,0.326 -2.506,1.153 v 13.886"
         style="fill:#000000;fill-opacity:1;fill-rule:nonzero;stroke:none"
         id="path21501" /><path
         d="m 163.1638,137.756 c 0,2.802 -0.396,7.147 -2.371,11.206 -2.154,4.418 -5.243,6.752 -5.603,6.752 -0.215,0 -0.359,-0.144 -0.359,-0.359 0,-0.108 0,-0.18 0.683,-0.827 3.518,-3.555 5.567,-9.266 5.567,-16.772 0,-6.14 -1.33,-12.462 -5.783,-16.987 -0.467,-0.43 -0.467,-0.502 -0.467,-0.61 0,-0.215 0.144,-0.359 0.359,-0.359 0.36,0 3.592,2.442 5.711,7.003 1.831,3.95 2.263,7.938 2.263,10.953"
         style="fill:#000000;fill-opacity:1;fill-rule:nonzero;stroke:none"
         id="path21503" /><path
         d="m 201.3568,140.522 c 0.54,0 1.221,0 1.221,0.719 0,0.718 -0.681,0.718 -1.185,0.718 h -21.512 c -0.503,0 -1.186,0 -1.186,-0.718 0,-0.719 0.683,-0.719 1.222,-0.719 z m 0.036,-6.967 c 0.504,0 1.185,0 1.185,0.718 0,0.718 -0.681,0.718 -1.221,0.718 h -21.44 c -0.539,0 -1.222,0 -1.222,-0.718 0,-0.718 0.683,-0.718 1.186,-0.718 h 21.512"
         style="fill:#000000;fill-opacity:1;fill-rule:nonzero;stroke:none"
         id="path21505" /><path
         d="m 227.2808,158.919 c 0,0.676 -0.05,0.701 -0.753,0.701 -1.603,-1.579 -3.885,-1.604 -4.913,-1.604 v -0.902 c 0.602,0 2.257,0 3.635,0.702 v -12.783 c 0,-0.827 0,-1.153 -2.507,-1.153 h -0.951 v -0.902 c 0.45,0.025 3.533,0.1 4.461,0.1 0.776,0 3.934,-0.075 4.486,-0.1 v 0.902 h -0.952 c -2.506,0 -2.506,0.326 -2.506,1.153 v 13.886"
         style="fill:#000000;fill-opacity:1;fill-rule:nonzero;stroke:none"
         id="path21507" /><g
         id="g21509"
         transform="matrix(0.1,0,0,0.1,0.883812,0.278)"><path
           d="m 2179.76,1375.13 h 142.95"
           style="fill:none;stroke:#000000;stroke-width:14.328;stroke-linecap:butt;stroke-linejoin:miter;stroke-miterlimit:10;stroke-dasharray:none;stroke-opacity:1"
           id="path21511" /></g><path
         d="m 225.7258,124.85 c 1.955,0 3.36,-1.355 3.36,-4.036 0,-3.108 -1.805,-4.036 -3.26,-4.036 -1.001,0 -3.208,0.277 -4.261,1.755 1.178,0.05 1.455,0.878 1.455,1.404 0,0.802 -0.602,1.379 -1.38,1.379 -0.701,0 -1.403,-0.427 -1.403,-1.455 0,-2.355 2.606,-3.885 5.639,-3.885 3.485,0 5.891,2.332 5.891,4.838 0,1.955 -1.605,3.909 -4.361,4.486 2.631,0.953 3.584,2.833 3.584,4.361 0,1.981 -2.281,3.459 -5.064,3.459 -2.781,0 -4.912,-1.353 -4.912,-3.358 0,-0.853 0.551,-1.329 1.304,-1.329 0.777,0 1.279,0.576 1.279,1.278 0,0.728 -0.502,1.253 -1.279,1.305 0.877,1.101 2.607,1.378 3.533,1.378 1.128,0 2.708,-0.552 2.708,-2.733 0,-1.052 -0.352,-2.205 -1.003,-2.981 -0.827,-0.954 -1.528,-1.004 -2.781,-1.079 -0.627,-0.05 -0.678,-0.05 -0.803,-0.075 -0.05,0 -0.25,-0.05 -0.25,-0.326 0,-0.35 0.225,-0.35 0.651,-0.35 h 1.353"
         style="fill:#000000;fill-opacity:1;fill-rule:nonzero;stroke:none"
         id="path21513" /><path
         d="m 28.53541,90.6358 c 0.3593,1.4375 1.0047,2.55 3.8781,2.6578 0.1797,0 0.6109,0.036 0.6109,0.7188 0,0.0359 0,0.3953 -0.4672,0.3953 -1.1843,0 -2.4421,-0.1078 -3.6265,-0.1078 -1.2219,0 -2.4781,0.1078 -3.6641,0.1078 -0.2156,0 -0.6469,0 -0.6469,-0.7188 0,-0.3953 0.3594,-0.3953 0.6469,-0.3953 2.0469,-0.0359 2.4422,-0.789 2.4422,-1.5797 0,-0.1078 -0.0719,-0.6468 -0.1078,-0.7546 l -4.0219,-15.9813 -7.9375,18.7469 c -0.2875,0.6469 -0.3234,0.6828 -1.1484,0.6828 H 9.680692 c -0.71875,0 -1.04219,0 -1.04219,-0.7188 0,-0.3953 0.32344,-0.3953 1.00625,-0.3953 0.17812,0 2.442158,0 2.442158,-0.3234 L 7.274442,73.6843 c -0.35938,-1.436 -0.97032,-2.586 -3.87969,-2.6922 -0.21563,0 -0.61094,-0.036 -0.61094,-0.7188 0,-0.2515 0.17969,-0.3953 0.46719,-0.3953 1.15,0 2.40625,0.1078 3.59219,0.1078 1.22031,0 2.51406,-0.1078 3.698428,-0.1078 0.17969,0 0.64689,0 0.64689,0.7188 0,0.3593 -0.32345,0.3953 -0.71876,0.3953 -2.082808,0.0718 -2.370308,0.8609 -2.370308,1.5797 0,0.2515 0.03593,0.4312 0.14375,0.8265 l 4.740618,18.9625 c 0.1438,-0.2156 0.1438,-0.2875 0.3234,-0.6469 l 8.9422,-21.1531 c 0.2516,-0.6109 0.3594,-0.6828 0.6828,-0.6828 0.3954,0 0.3954,0.1078 0.575,0.7547 l 5.0282,20.0031"
         style="fill:#000000;fill-opacity:1;fill-rule:nonzero;stroke:none"
         id="path21515" /><path
         d="m 61.23541,90.6358 c 0.3593,1.4375 1.0047,2.55 3.8781,2.6578 0.1797,0 0.6109,0.036 0.6109,0.7188 0,0.0359 0,0.3953 -0.4672,0.3953 -1.1843,0 -2.4421,-0.1078 -3.6265,-0.1078 -1.2219,0 -2.4781,0.1078 -3.6641,0.1078 -0.2156,0 -0.6469,0 -0.6469,-0.7188 0,-0.3953 0.3594,-0.3953 0.6469,-0.3953 2.0469,-0.0359 2.4422,-0.789 2.4422,-1.5797 0,-0.1078 -0.0719,-0.6468 -0.1078,-0.7546 l -4.0219,-15.9813 -7.9375,18.7469 c -0.2875,0.6469 -0.3234,0.6828 -1.1484,0.6828 h -4.8125 c -0.7188,0 -1.0422,0 -1.0422,-0.7188 0,-0.3953 0.3234,-0.3953 1.0062,-0.3953 0.1782,0 2.4422,0 2.4422,-0.3234 l -4.8125,-19.2859 c -0.3593,-1.436 -0.9703,-2.586 -3.8797,-2.6922 -0.2156,0 -0.6109,-0.036 -0.6109,-0.7188 0,-0.2515 0.1797,-0.3953 0.4672,-0.3953 1.15,0 2.4062,0.1078 3.5922,0.1078 1.2203,0 2.514,-0.1078 3.6984,-0.1078 0.1797,0 0.6469,0 0.6469,0.7188 0,0.3593 -0.3234,0.3953 -0.7188,0.3953 -2.0828,0.0718 -2.3703,0.8609 -2.3703,1.5797 0,0.2515 0.036,0.4312 0.1438,0.8265 l 4.7406,18.9625 c 0.1438,-0.2156 0.1438,-0.2875 0.3234,-0.6469 l 8.9422,-21.1531 c 0.2516,-0.6109 0.3594,-0.6828 0.6828,-0.6828 0.3954,0 0.3954,0.1078 0.575,0.7547 l 5.0282,20.0031"
         style="fill:#000000;fill-opacity:1;fill-rule:nonzero;stroke:none"
         id="path21517" /><path
         d="m 87.38541,92.2718 c 0,2.1812 -1.0766,3.4593 -3.7594,3.4593 -1.9797,0 -3.3328,-1.0781 -4.0094,-2.3312 -0.5015,1.7797 -1.8547,2.3312 -3.6844,2.3312 -2.0546,0 -3.3843,-1.1281 -4.0859,-2.4312 h -0.025 v 2.4312 l -3.6844,-0.2765 V 94.553 c 1.6797,0 1.8797,-0.175 1.8797,-1.4031 v -6.4922 c 0,-1.0781 -0.25,-1.0781 -1.8797,-1.0781 V 84.678 c 0.05,0 1.8047,0.1 2.8578,0.1 0.9266,0 2.6563,-0.075 2.8829,-0.1 v 0.9016 c -1.6297,0 -1.8813,0 -1.8813,1.0781 v 4.5125 c 0,2.6312 2.0813,3.8594 3.7359,3.8594 1.7532,0 1.9797,-1.3782 1.9797,-2.6578 v -5.7141 c 0,-1.0781 -0.2515,-1.0781 -1.8797,-1.0781 V 84.678 c 0.05,0 1.8047,0.1 2.8563,0.1 0.9281,0 2.6578,-0.075 2.8828,-0.1 v 0.9016 c -1.6297,0 -1.8797,0 -1.8797,1.0781 v 4.5125 c 0,2.6312 2.0797,3.8594 3.7344,3.8594 1.7547,0 1.9797,-1.3782 1.9797,-2.6578 v -5.7141 c 0,-1.0781 -0.25,-1.0781 -1.8797,-1.0781 V 84.678 c 0.05,0 1.8047,0.1 2.8578,0.1 0.9266,0 2.6563,-0.075 2.8813,-0.1 v 0.9016 c -1.6282,0 -1.8797,0 -1.8797,1.0781 v 5.6141"
         style="fill:#000000;fill-opacity:1;fill-rule:nonzero;stroke:none"
         id="path21519" /><path
         d="m 95.67291,100.1421 c 0,0.7269 -0.6016,1.4279 -1.4547,1.4279 -0.7516,0 -1.4281,-0.601 -1.4281,-1.4279 0,-0.9016 0.7265,-1.4532 1.4281,-1.4532 0.8031,0 1.4547,0.6266 1.4547,1.4532 z m -3.811,-4.6875 V 94.553 c 1.5797,0 1.8047,-0.15 1.8047,-1.3781 v -6.5172 c 0,-1.0781 -0.25,-1.0781 -1.8797,-1.0781 V 84.678 c 0.05,0 1.8047,0.1 2.8078,0.1 0.8766,0 1.7797,-0.025 2.6563,-0.1 v 0.9016 c -1.4531,0 -1.7047,0 -1.7047,1.0531 v 9.0984 l -3.6844,-0.2765"
         style="fill:#000000;fill-opacity:1;fill-rule:nonzero;stroke:none"
         id="path21521" /><path
         d="m 107.9818,95.2046 c 0,0.4265 0,0.6515 -0.35,0.6515 -0.125,0 -0.175,0 -0.501,-0.3 -0.05,-0.025 -0.3,-0.2515 -0.452,-0.3765 -0.751,0.5265 -1.703,0.6765 -2.631,0.6765 -3.5843,0 -4.43589,-1.8797 -4.43589,-3.1328 0,-0.8015 0.35,-1.4531 0.95159,-1.9547 0.9533,-0.8265 1.9043,-1.0031 3.4593,-1.2531 1.253,-0.2266 3.283,-0.5766 3.283,-2.2562 0,-0.9766 -0.677,-2.1297 -3.083,-2.1297 -2.406,0 -3.283,1.5781 -3.7343,3.2828 -0.075,0.3265 -0.1,0.4265 -0.45,0.4265 -0.42659,0 -0.42659,-0.1765 -0.42659,-0.6765 v -3.0828 c 0,-0.4266 0,-0.6516 0.35,-0.6516 0.22659,0 0.70319,0.525 1.20289,1.0766 1.103,-1.0266 2.457,-1.0766 3.058,-1.0766 3.259,0 4.463,1.7531 4.463,3.5328 0,0.9531 -0.427,1.7047 -1.079,2.3063 -0.953,0.8765 -2.106,1.0781 -2.982,1.2281 -2.005,0.3516 -3.635,0.6516 -3.635,1.9797 0,0.8031 0.677,1.7797 3.058,1.7797 2.908,0 3.033,-2.0297 3.083,-2.7563 0.025,-0.2765 0.326,-0.2765 0.426,-0.2765 0.425,0 0.425,0.1765 0.425,0.6515 v 2.3313"
         style="fill:#000000;fill-opacity:1;fill-rule:nonzero;stroke:none"
         id="path21523" /><path
         d="m 119.3818,95.2046 c 0,0.4265 0,0.6515 -0.35,0.6515 -0.125,0 -0.175,0 -0.501,-0.3 -0.05,-0.025 -0.3,-0.2515 -0.452,-0.3765 -0.751,0.5265 -1.703,0.6765 -2.631,0.6765 -3.584,0 -4.436,-1.8797 -4.436,-3.1328 0,-0.8015 0.35,-1.4531 0.952,-1.9547 0.953,-0.8265 1.904,-1.0031 3.459,-1.2531 1.253,-0.2266 3.283,-0.5766 3.283,-2.2562 0,-0.9766 -0.677,-2.1297 -3.083,-2.1297 -2.406,0 -3.283,1.5781 -3.734,3.2828 -0.075,0.3265 -0.1,0.4265 -0.45,0.4265 -0.427,0 -0.427,-0.1765 -0.427,-0.6765 v -3.0828 c 0,-0.4266 0,-0.6516 0.35,-0.6516 0.227,0 0.703,0.525 1.203,1.0766 1.103,-1.0266 2.457,-1.0766 3.058,-1.0766 3.259,0 4.463,1.7531 4.463,3.5328 0,0.9531 -0.427,1.7047 -1.079,2.3063 -0.953,0.8765 -2.106,1.0781 -2.982,1.2281 -2.005,0.3516 -3.635,0.6516 -3.635,1.9797 0,0.8031 0.677,1.7797 3.058,1.7797 2.908,0 3.033,-2.0297 3.083,-2.7563 0.025,-0.2765 0.326,-0.2765 0.426,-0.2765 0.425,0 0.425,0.1765 0.425,0.6515 v 2.3313"
         style="fill:#000000;fill-opacity:1;fill-rule:nonzero;stroke:none"
         id="path21525" /><path
         d="m 69.72601,69.3499 c 1.9547,0 3.3594,-1.3547 3.3594,-4.036 0,-3.1078 -1.8047,-4.0359 -3.2594,-4.0359 -1.0016,0 -3.2078,0.2766 -4.2609,1.7547 1.1781,0.05 1.4546,0.8781 1.4546,1.4047 0,0.8015 -0.6015,1.3781 -1.3796,1.3781 -0.7016,0 -1.4032,-0.4266 -1.4032,-1.4547 0,-2.3547 2.6063,-3.8844 5.6391,-3.8844 3.4844,0 5.8906,2.3313 5.8906,4.8375 0,1.9547 -1.6047,3.9094 -4.3609,4.486 2.6312,0.9531 3.5844,2.8328 3.5844,4.3609 0,1.9813 -2.2813,3.4594 -5.0641,3.4594 -2.7813,0 -4.9125,-1.3531 -4.9125,-3.3578 0,-0.8531 0.5516,-1.3297 1.3047,-1.3297 0.7765,0 1.2781,0.5766 1.2781,1.2781 0,0.7281 -0.5016,1.2531 -1.2781,1.3047 0.8765,1.1016 2.6062,1.3781 3.5328,1.3781 1.1281,0 2.7078,-0.5515 2.7078,-2.7328 0,-1.0515 -0.3516,-2.2047 -1.0031,-2.9812 -0.8266,-0.9532 -1.5281,-1.0032 -2.7813,-1.0782 -0.6265,-0.05 -0.6781,-0.05 -0.8031,-0.075 -0.05,0 -0.25,-0.05 -0.25,-0.3265 0,-0.35 0.225,-0.35 0.6516,-0.35 h 1.3531"
         style="fill:#000000;fill-opacity:1;fill-rule:nonzero;stroke:none"
         id="path21527" /><path
         d="m 134.8718,61.2593 c 0,0.1078 0,0.1796 -0.611,0.789 -4.489,4.525 -5.638,11.3141 -5.638,16.8078 0,6.25 1.364,12.4985 5.781,16.9875 0.468,0.4313 0.468,0.5032 0.468,0.611 0,0.2515 -0.144,0.3593 -0.36,0.3593 -0.359,0 -3.59,-2.4421 -5.709,-7.0031 -1.833,-3.9515 -2.263,-7.9375 -2.263,-10.9547 0,-2.8015 0.394,-7.1468 2.371,-11.2047 2.154,-4.4171 5.242,-6.7515 5.601,-6.7515 0.216,0 0.36,0.1078 0.36,0.3594"
         style="fill:#000000;fill-opacity:1;fill-rule:nonzero;stroke:none"
         id="path21529" /><path
         d="m 145.5668,94.4077 c 0,0.0359 0,0.3953 -0.466,0.3953 -0.826,0 -3.448,-0.2875 -4.383,-0.3594 -0.286,-0.0359 -0.681,-0.0718 -0.681,-0.7187 0,-0.4313 0.324,-0.4313 0.861,-0.4313 1.725,0 1.797,-0.2515 1.797,-0.6093 0,-0.2516 -0.323,-1.4735 -0.503,-2.2282 l -2.945,-11.7078 c -0.432,-1.7953 -0.575,-2.3703 -0.575,-3.6265 0,-3.4125 1.904,-5.6391 4.56,-5.6391 4.24,0 8.657,5.3516 8.657,10.5234 0,3.2672 -1.903,5.7453 -4.777,5.7453 -1.653,0 -3.125,-1.0406 -4.201,-2.1546 z m -3.375,-13.5766 c 0.215,0.7907 0.215,0.8625 0.539,1.2578 1.759,2.3344 3.375,2.8735 4.309,2.8735 1.292,0 2.263,-1.0781 2.263,-3.3766 0,-2.1187 -1.186,-6.2484 -1.831,-7.614 -1.186,-2.4063 -2.838,-3.6985 -4.24,-3.6985 -1.22,0 -2.406,0.9688 -2.406,3.6266 0,0.6828 0,1.3656 0.575,3.6281 l 0.791,3.3031"
         style="fill:#000000;fill-opacity:1;fill-rule:nonzero;stroke:none"
         id="path21531" /><path
         d="m 160.7808,80.4186 c 0,0.6766 -0.05,0.7016 -0.753,0.7016 -1.603,-1.5797 -3.885,-1.6047 -4.913,-1.6047 v -0.9016 c 0.602,0 2.257,0 3.635,0.7016 V 66.5327 c 0,-0.8266 0,-1.1531 -2.507,-1.1531 h -0.951 V 64.478 c 0.45,0.025 3.533,0.1 4.461,0.1 0.776,0 3.934,-0.075 4.486,-0.1 v 0.9016 h -0.952 c -2.506,0 -2.506,0.3265 -2.506,1.1531 v 13.8859"
         style="fill:#000000;fill-opacity:1;fill-rule:nonzero;stroke:none"
         id="path21533" /><path
         d="m 175.7748,69.9139 c 0,2.3704 -0.899,3.7704 -2.299,3.7704 -1.186,0 -1.903,-0.8969 -1.903,-1.9032 0,-0.9687 0.717,-1.9031 1.903,-1.9031 0.431,0 0.899,0.1438 1.256,0.4672 0.108,0.0719 0.144,0.1078 0.18,0.1078 0.036,0 0.072,-0.0359 0.072,-0.5391 0,-2.6578 -1.256,-4.8125 -2.442,-5.9984 -0.395,-0.3937 -0.395,-0.4656 -0.395,-0.5734 0,-0.2516 0.179,-0.3953 0.359,-0.3953 0.395,0 3.269,2.7656 3.269,6.9671"
         style="fill:#000000;fill-opacity:1;fill-rule:nonzero;stroke:none"
         id="path21535" /><path
         d="m 190.8118,74.0077 c -1.436,-2.4063 -2.836,-2.9094 -4.417,-3.0156 -0.431,-0.036 -0.755,-0.036 -0.755,-0.7188 0,-0.2156 0.18,-0.3953 0.467,-0.3953 0.971,0 2.083,0.1078 3.09,0.1078 1.185,0 2.442,-0.1078 3.592,-0.1078 0.214,0 0.681,0 0.681,0.6828 0,0.3953 -0.323,0.4313 -0.575,0.4313 -0.825,0.0718 -1.688,0.3578 -1.688,1.2562 0,0.4313 0.216,0.8266 0.504,1.3281 l 2.729,4.5985 h 9.014 c 0.072,-0.7547 0.575,-5.6391 0.575,-5.9985 0,-1.0781 -1.867,-1.1843 -2.586,-1.1843 -0.503,0 -0.862,0 -0.862,-0.7188 0,-0.3953 0.431,-0.3953 0.503,-0.3953 1.472,0 3.017,0.1078 4.489,0.1078 0.899,0 3.161,-0.1078 4.059,-0.1078 0.215,0 0.646,0 0.646,0.7188 0,0.3953 -0.36,0.3953 -0.825,0.3953 -2.227,0 -2.227,0.25 -2.335,1.2922 l -2.192,22.4468 c -0.072,0.7172 -0.072,0.861 -0.681,0.861 -0.575,0 -0.719,-0.2516 -0.934,-0.6094 z m 4.311,5.2797 7.075,11.8515 1.149,-11.8515 z"
         style="fill:#000000;fill-opacity:1;fill-rule:nonzero;stroke:none"
         id="path21537" /><path
         d="m 221.6638,78.8561 c 0,2.8016 -0.396,7.1469 -2.371,11.2063 -2.154,4.4172 -5.243,6.7515 -5.603,6.7515 -0.215,0 -0.359,-0.1437 -0.359,-0.3593 0,-0.1078 0,-0.1797 0.683,-0.8266 3.518,-3.5547 5.567,-9.2656 5.567,-16.7719 0,-6.1406 -1.33,-12.4625 -5.783,-16.9875 -0.467,-0.4297 -0.467,-0.5015 -0.467,-0.6093 0,-0.2157 0.144,-0.3594 0.359,-0.3594 0.36,0 3.592,2.4422 5.711,7.0031 1.831,3.95 2.263,7.9375 2.263,10.9531"
         style="fill:#000000;fill-opacity:1;fill-rule:nonzero;stroke:none"
         id="path21539" /><path
         d="m 259.8568,81.6218 c 0.54,0 1.221,0 1.221,0.7187 0,0.7188 -0.681,0.7188 -1.185,0.7188 h -21.512 c -0.503,0 -1.186,0 -1.186,-0.7188 0,-0.7187 0.683,-0.7187 1.222,-0.7187 z m 0.036,-6.9672 c 0.504,0 1.185,0 1.185,0.7187 0,0.7172 -0.681,0.7172 -1.221,0.7172 h -21.44 c -0.539,0 -1.222,0 -1.222,-0.7172 0,-0.7187 0.683,-0.7187 1.186,-0.7187 h 21.512"
         style="fill:#000000;fill-opacity:1;fill-rule:nonzero;stroke:none"
         id="path21541" /><path
         d="m 285.7808,99.9186 c 0,0.6764 -0.05,0.7014 -0.753,0.7014 -1.603,-1.5795 -3.885,-1.6045 -4.913,-1.6045 v -0.9016 c 0.602,0 2.257,0 3.635,0.7016 V 86.0327 c 0,-0.8266 0,-1.1531 -2.507,-1.1531 h -0.951 V 83.978 c 0.45,0.025 3.533,0.1 4.461,0.1 0.776,0 3.934,-0.075 4.486,-0.1 v 0.9016 h -0.952 c -2.506,0 -2.506,0.3265 -2.506,1.1531 v 13.8859"
         style="fill:#000000;fill-opacity:1;fill-rule:nonzero;stroke:none"
         id="path21543" /><g
         id="g21545"
         transform="matrix(0.1,0,0,0.1,0.883812,0.278)"><path
           d="m 2764.86,785.59 h 142.96"
           style="fill:none;stroke:#000000;stroke-width:14.328;stroke-linecap:butt;stroke-linejoin:miter;stroke-miterlimit:10;stroke-dasharray:none;stroke-opacity:1"
           id="path21547" /></g><path
         d="m 284.2258,65.8499 c 1.955,0 3.36,-1.3547 3.36,-4.036 0,-3.1078 -1.805,-4.0359 -3.26,-4.0359 -1.001,0 -3.208,0.2766 -4.261,1.7547 1.178,0.05 1.455,0.8781 1.455,1.4047 0,0.8015 -0.602,1.3781 -1.38,1.3781 -0.701,0 -1.403,-0.4266 -1.403,-1.4547 0,-2.3547 2.606,-3.8844 5.639,-3.8844 3.485,0 5.891,2.3313 5.891,4.8375 0,1.9547 -1.605,3.9094 -4.361,4.486 2.631,0.9531 3.584,2.8328 3.584,4.3609 0,1.9813 -2.281,3.4594 -5.064,3.4594 -2.781,0 -4.912,-1.3531 -4.912,-3.3578 0,-0.8531 0.551,-1.3297 1.304,-1.3297 0.777,0 1.279,0.5766 1.279,1.2781 0,0.7281 -0.502,1.2531 -1.279,1.3047 0.877,1.1016 2.607,1.3781 3.533,1.3781 1.128,0 2.708,-0.5515 2.708,-2.7328 0,-1.0515 -0.352,-2.2047 -1.003,-2.9812 -0.827,-0.9532 -1.528,-1.0032 -2.781,-1.0782 -0.627,-0.05 -0.678,-0.05 -0.803,-0.075 -0.05,0 -0.25,-0.05 -0.25,-0.3265 0,-0.35 0.225,-0.35 0.651,-0.35 h 1.353"
         style="fill:#000000;fill-opacity:1;fill-rule:nonzero;stroke:none"
         id="path21549" /><path
         d="m 28.53541,31.6358 c 0.3593,1.4375 1.0047,2.55 3.8781,2.6578 0.1797,0 0.6109,0.036 0.6109,0.7188 0,0.0359 0,0.3953 -0.4672,0.3953 -1.1843,0 -2.4421,-0.1078 -3.6265,-0.1078 -1.2219,0 -2.4781,0.1078 -3.6641,0.1078 -0.2156,0 -0.6469,0 -0.6469,-0.7188 0,-0.3953 0.3594,-0.3953 0.6469,-0.3953 2.0469,-0.0359 2.4422,-0.789 2.4422,-1.5797 0,-0.1078 -0.0719,-0.6468 -0.1078,-0.7546 l -4.0219,-15.9813 -7.9375,18.7469 c -0.2875,0.6469 -0.3234,0.6828 -1.1484,0.6828 H 9.680692 c -0.71875,0 -1.04219,0 -1.04219,-0.7188 0,-0.3953 0.32344,-0.3953 1.00625,-0.3953 0.17812,0 2.442158,0 2.442158,-0.3234 L 7.274442,14.6843 c -0.35938,-1.436 -0.97032,-2.586 -3.87969,-2.6922 -0.21563,0 -0.61094,-0.036 -0.61094,-0.7188 0,-0.2515 0.17969,-0.3953 0.46719,-0.3953 1.15,0 2.40625,0.1078 3.59219,0.1078 1.22031,0 2.51406,-0.1078 3.698428,-0.1078 0.17969,0 0.64689,0 0.64689,0.7188 0,0.3593 -0.32345,0.3953 -0.71876,0.3953 -2.082808,0.0718 -2.370308,0.8609 -2.370308,1.5797 0,0.2515 0.03593,0.4312 0.14375,0.8265 l 4.740618,18.9625 c 0.1438,-0.2156 0.1438,-0.2875 0.3234,-0.6469 l 8.9422,-21.1531 c 0.2516,-0.6109 0.3594,-0.6828 0.6828,-0.6828 0.3954,0 0.3954,0.1078 0.575,0.7547 l 5.0282,20.0031"
         style="fill:#000000;fill-opacity:1;fill-rule:nonzero;stroke:none"
         id="path21551" /><path
         d="m 61.23541,31.6358 c 0.3593,1.4375 1.0047,2.55 3.8781,2.6578 0.1797,0 0.6109,0.036 0.6109,0.7188 0,0.0359 0,0.3953 -0.4672,0.3953 -1.1843,0 -2.4421,-0.1078 -3.6265,-0.1078 -1.2219,0 -2.4781,0.1078 -3.6641,0.1078 -0.2156,0 -0.6469,0 -0.6469,-0.7188 0,-0.3953 0.3594,-0.3953 0.6469,-0.3953 2.0469,-0.0359 2.4422,-0.789 2.4422,-1.5797 0,-0.1078 -0.0719,-0.6468 -0.1078,-0.7546 l -4.0219,-15.9813 -7.9375,18.7469 c -0.2875,0.6469 -0.3234,0.6828 -1.1484,0.6828 h -4.8125 c -0.7188,0 -1.0422,0 -1.0422,-0.7188 0,-0.3953 0.3234,-0.3953 1.0062,-0.3953 0.1782,0 2.4422,0 2.4422,-0.3234 l -4.8125,-19.2859 c -0.3593,-1.436 -0.9703,-2.586 -3.8797,-2.6922 -0.2156,0 -0.6109,-0.036 -0.6109,-0.7188 0,-0.2515 0.1797,-0.3953 0.4672,-0.3953 1.15,0 2.4062,0.1078 3.5922,0.1078 1.2203,0 2.514,-0.1078 3.6984,-0.1078 0.1797,0 0.6469,0 0.6469,0.7188 0,0.3593 -0.3234,0.3953 -0.7188,0.3953 -2.0828,0.0718 -2.3703,0.8609 -2.3703,1.5797 0,0.2515 0.036,0.4312 0.1438,0.8265 l 4.7406,18.9625 c 0.1438,-0.2156 0.1438,-0.2875 0.3234,-0.6469 l 8.9422,-21.1531 c 0.2516,-0.6109 0.3594,-0.6828 0.6828,-0.6828 0.3954,0 0.3954,0.1078 0.575,0.7547 l 5.0282,20.0031"
         style="fill:#000000;fill-opacity:1;fill-rule:nonzero;stroke:none"
         id="path21553" /><path
         d="m 87.38541,33.2718 c 0,2.1812 -1.0766,3.4593 -3.7594,3.4593 -1.9797,0 -3.3328,-1.0781 -4.0094,-2.3312 -0.5015,1.7797 -1.8547,2.3312 -3.6844,2.3312 -2.0546,0 -3.3843,-1.1281 -4.0859,-2.4312 h -0.025 v 2.4312 l -3.6844,-0.2765 V 35.553 c 1.6797,0 1.8797,-0.175 1.8797,-1.4031 v -6.4922 c 0,-1.0781 -0.25,-1.0781 -1.8797,-1.0781 V 25.678 c 0.05,0 1.8047,0.1 2.8578,0.1 0.9266,0 2.6563,-0.075 2.8829,-0.1 v 0.9016 c -1.6297,0 -1.8813,0 -1.8813,1.0781 v 4.5125 c 0,2.6312 2.0813,3.8594 3.7359,3.8594 1.7532,0 1.9797,-1.3782 1.9797,-2.6578 v -5.7141 c 0,-1.0781 -0.2515,-1.0781 -1.8797,-1.0781 V 25.678 c 0.05,0 1.8047,0.1 2.8563,0.1 0.9281,0 2.6578,-0.075 2.8828,-0.1 v 0.9016 c -1.6297,0 -1.8797,0 -1.8797,1.0781 v 4.5125 c 0,2.6312 2.0797,3.8594 3.7344,3.8594 1.7547,0 1.9797,-1.3782 1.9797,-2.6578 v -5.7141 c 0,-1.0781 -0.25,-1.0781 -1.8797,-1.0781 V 25.678 c 0.05,0 1.8047,0.1 2.8578,0.1 0.9266,0 2.6563,-0.075 2.8813,-0.1 v 0.9016 c -1.6282,0 -1.8797,0 -1.8797,1.0781 v 5.6141"
         style="fill:#000000;fill-opacity:1;fill-rule:nonzero;stroke:none"
         id="path21555" /><path
         d="m 95.67291,41.1421 c 0,0.7265 -0.6016,1.4281 -1.4547,1.4281 -0.7516,0 -1.4281,-0.6016 -1.4281,-1.4281 0,-0.9016 0.7265,-1.4532 1.4281,-1.4532 0.8031,0 1.4547,0.6266 1.4547,1.4532 z m -3.811,-4.6875 V 35.553 c 1.5797,0 1.8047,-0.15 1.8047,-1.3781 v -6.5172 c 0,-1.0781 -0.25,-1.0781 -1.8797,-1.0781 V 25.678 c 0.05,0 1.8047,0.1 2.8078,0.1 0.8766,0 1.7797,-0.025 2.6563,-0.1 v 0.9016 c -1.4531,0 -1.7047,0 -1.7047,1.0531 v 9.0984 l -3.6844,-0.2765"
         style="fill:#000000;fill-opacity:1;fill-rule:nonzero;stroke:none"
         id="path21557" /><path
         d="m 107.9818,36.2046 c 0,0.4265 0,0.6515 -0.35,0.6515 -0.125,0 -0.175,0 -0.501,-0.3 -0.05,-0.025 -0.3,-0.2515 -0.452,-0.3765 -0.751,0.5265 -1.703,0.6765 -2.631,0.6765 -3.5843,0 -4.43589,-1.8797 -4.43589,-3.1328 0,-0.8015 0.35,-1.4531 0.95159,-1.9547 0.9533,-0.8265 1.9043,-1.0031 3.4593,-1.2531 1.253,-0.2266 3.283,-0.5766 3.283,-2.2562 0,-0.9766 -0.677,-2.1297 -3.083,-2.1297 -2.406,0 -3.283,1.5781 -3.7343,3.2828 -0.075,0.3265 -0.1,0.4265 -0.45,0.4265 -0.42659,0 -0.42659,-0.1765 -0.42659,-0.6765 v -3.0828 c 0,-0.4266 0,-0.6516 0.35,-0.6516 0.22659,0 0.70319,0.525 1.20289,1.0766 1.103,-1.0266 2.457,-1.0766 3.058,-1.0766 3.259,0 4.463,1.7531 4.463,3.5328 0,0.9531 -0.427,1.7047 -1.079,2.3063 -0.953,0.8765 -2.106,1.0781 -2.982,1.2281 -2.005,0.3516 -3.635,0.6516 -3.635,1.9797 0,0.8031 0.677,1.7797 3.058,1.7797 2.908,0 3.033,-2.0297 3.083,-2.7563 0.025,-0.2765 0.326,-0.2765 0.426,-0.2765 0.425,0 0.425,0.1765 0.425,0.6515 v 2.3313"
         style="fill:#000000;fill-opacity:1;fill-rule:nonzero;stroke:none"
         id="path21559" /><path
         d="m 119.3818,36.2046 c 0,0.4265 0,0.6515 -0.35,0.6515 -0.125,0 -0.175,0 -0.501,-0.3 -0.05,-0.025 -0.3,-0.2515 -0.452,-0.3765 -0.751,0.5265 -1.703,0.6765 -2.631,0.6765 -3.584,0 -4.436,-1.8797 -4.436,-3.1328 0,-0.8015 0.35,-1.4531 0.952,-1.9547 0.953,-0.8265 1.904,-1.0031 3.459,-1.2531 1.253,-0.2266 3.283,-0.5766 3.283,-2.2562 0,-0.9766 -0.677,-2.1297 -3.083,-2.1297 -2.406,0 -3.283,1.5781 -3.734,3.2828 -0.075,0.3265 -0.1,0.4265 -0.45,0.4265 -0.427,0 -0.427,-0.1765 -0.427,-0.6765 v -3.0828 c 0,-0.4266 0,-0.6516 0.35,-0.6516 0.227,0 0.703,0.525 1.203,1.0766 1.103,-1.0266 2.457,-1.0766 3.058,-1.0766 3.259,0 4.463,1.7531 4.463,3.5328 0,0.9531 -0.427,1.7047 -1.079,2.3063 -0.953,0.8765 -2.106,1.0781 -2.982,1.2281 -2.005,0.3516 -3.635,0.6516 -3.635,1.9797 0,0.8031 0.677,1.7797 3.058,1.7797 2.908,0 3.033,-2.0297 3.083,-2.7563 0.025,-0.2765 0.326,-0.2765 0.426,-0.2765 0.425,0 0.425,0.1765 0.425,0.6515 v 2.3313"
         style="fill:#000000;fill-opacity:1;fill-rule:nonzero;stroke:none"
         id="path21561" /><path
         d="m 69.72601,10.4499 c 1.9547,0 3.3594,-1.35471 3.3594,-4.03596 0,-3.10781 -1.8047,-4.03594 -3.2594,-4.03594 -1.0016,0 -3.2078,0.27656 -4.2609,1.75469 1.1781,0.05 1.4546,0.87812 1.4546,1.40469 0,0.80156 -0.6015,1.37812 -1.3796,1.37812 -0.7016,0 -1.4032,-0.42656 -1.4032,-1.45469 0,-2.35468 2.6063,-3.88437 5.6391,-3.88437 3.4844,0 5.8906,2.33125 5.8906,4.8375 0,1.95469 -1.6047,3.90936 -4.3609,4.48596 2.6312,0.9531 3.5844,2.8328 3.5844,4.3609 0,1.9813 -2.2813,3.4594 -5.0641,3.4594 -2.7813,0 -4.9125,-1.3531 -4.9125,-3.3578 0,-0.8531 0.5516,-1.3297 1.3047,-1.3297 0.7765,0 1.2781,0.5766 1.2781,1.2781 0,0.7281 -0.5016,1.2531 -1.2781,1.3047 0.8765,1.1016 2.6062,1.3781 3.5328,1.3781 1.1281,0 2.7078,-0.5515 2.7078,-2.7328 0,-1.0515 -0.3516,-2.2047 -1.0031,-2.9812 -0.8266,-0.9532 -1.5281,-1.0032 -2.7813,-1.0782 -0.6265,-0.05 -0.6781,-0.05 -0.8031,-0.075 -0.05,0 -0.25,-0.05 -0.25,-0.3265 0,-0.35 0.225,-0.35 0.6516,-0.35 h 1.3531"
         style="fill:#000000;fill-opacity:1;fill-rule:nonzero;stroke:none"
         id="path21563" /><path
         d="m 134.8718,2.25925 c 0,0.10781 0,0.17969 -0.611,0.78906 -4.489,4.525 -5.638,11.31409 -5.638,16.80779 0,6.25 1.364,12.4985 5.781,16.9875 0.468,0.4313 0.468,0.5032 0.468,0.611 0,0.2515 -0.144,0.3593 -0.36,0.3593 -0.359,0 -3.59,-2.4421 -5.709,-7.0031 -1.833,-3.9515 -2.263,-7.9375 -2.263,-10.9547 0,-2.8015 0.394,-7.1468 2.371,-11.20466 2.154,-4.41719 5.242,-6.75156 5.601,-6.75156 0.216,0 0.36,0.10781 0.36,0.35937"
         style="fill:#000000;fill-opacity:1;fill-rule:nonzero;stroke:none"
         id="path21565" /><path
         d="m 151.2058,24.5249 c -0.575,0 -1.077,0 -1.58,-0.5016 -0.575,-0.539 -0.647,-1.15 -0.647,-1.4015 0,-0.8625 0.647,-1.2563 1.328,-1.2563 1.043,0 2.013,0.8609 2.013,2.2984 0,1.7594 -1.689,3.0875 -4.239,3.0875 -4.849,0 -9.625,-5.1343 -9.625,-10.1984 0,-3.2328 2.084,-6.0703 5.819,-6.0703 5.136,0 8.153,3.8078 8.153,4.2375 0,0.2156 -0.216,0.4672 -0.431,0.4672 -0.18,0 -0.252,-0.0719 -0.468,-0.3594 -2.837,-3.5547 -6.751,-3.5547 -7.182,-3.5547 -2.263,0 -3.233,1.7594 -3.233,3.9141 0,1.4734 0.718,4.9562 1.939,7.1828 1.114,2.0469 3.089,3.5922 5.064,3.5922 1.222,0 2.586,-0.4672 3.089,-1.4375"
         style="fill:#000000;fill-opacity:1;fill-rule:nonzero;stroke:none"
         id="path21567" /><path
         d="m 160.8808,21.5186 c 0,0.6766 -0.05,0.7016 -0.753,0.7016 -1.603,-1.5797 -3.885,-1.6047 -4.913,-1.6047 v -0.9016 c 0.602,0 2.257,0 3.635,0.7016 V 7.63269 c 0,-0.82656 0,-1.15313 -2.507,-1.15313 h -0.951 V 5.578 c 0.45,0.025 3.533,0.1 4.461,0.1 0.776,0 3.934,-0.075 4.486,-0.1 v 0.90156 h -0.952 c -2.506,0 -2.506,0.32657 -2.506,1.15313 V 21.5186"
         style="fill:#000000;fill-opacity:1;fill-rule:nonzero;stroke:none"
         id="path21569" /><path
         d="m 175.8748,10.9139 c 0,2.3704 -0.899,3.7704 -2.299,3.7704 -1.186,0 -1.903,-0.8969 -1.903,-1.9032 0,-0.9687 0.717,-1.9031 1.903,-1.9031 0.431,0 0.899,0.1438 1.256,0.4672 0.108,0.0719 0.144,0.1078 0.18,0.1078 0.036,0 0.072,-0.0359 0.072,-0.5391 0,-2.65777 -1.256,-4.81246 -2.442,-5.9984 -0.395,-0.39375 -0.395,-0.46562 -0.395,-0.57344 0,-0.25156 0.179,-0.39531 0.359,-0.39531 0.395,0 3.269,2.76563 3.269,6.96715"
         style="fill:#000000;fill-opacity:1;fill-rule:nonzero;stroke:none"
         id="path21571" /><path
         d="m 191.0118,15.0077 c -1.436,-2.4063 -2.836,-2.9094 -4.417,-3.0156 -0.431,-0.036 -0.755,-0.036 -0.755,-0.7188 0,-0.2156 0.18,-0.3953 0.467,-0.3953 0.971,0 2.083,0.1078 3.09,0.1078 1.185,0 2.442,-0.1078 3.592,-0.1078 0.214,0 0.681,0 0.681,0.6828 0,0.3953 -0.323,0.4313 -0.575,0.4313 -0.825,0.0718 -1.688,0.3578 -1.688,1.2562 0,0.4313 0.216,0.8266 0.504,1.3281 l 2.729,4.5985 h 9.014 c 0.072,-0.7547 0.575,-5.6391 0.575,-5.9985 0,-1.0781 -1.867,-1.1843 -2.586,-1.1843 -0.503,0 -0.862,0 -0.862,-0.7188 0,-0.3953 0.431,-0.3953 0.503,-0.3953 1.472,0 3.017,0.1078 4.489,0.1078 0.899,0 3.161,-0.1078 4.059,-0.1078 0.215,0 0.646,0 0.646,0.7188 0,0.3953 -0.36,0.3953 -0.825,0.3953 -2.227,0 -2.227,0.25 -2.335,1.2922 l -2.192,22.4468 c -0.072,0.7172 -0.072,0.861 -0.681,0.861 -0.575,0 -0.719,-0.2516 -0.934,-0.6094 z m 4.311,5.2797 7.075,11.8515 1.149,-11.8515 z"
         style="fill:#000000;fill-opacity:1;fill-rule:nonzero;stroke:none"
         id="path21573" /><path
         d="m 221.7638,19.8561 c 0,2.8016 -0.396,7.1469 -2.371,11.2063 -2.154,4.4172 -5.243,6.7515 -5.603,6.7515 -0.215,0 -0.359,-0.1437 -0.359,-0.3593 0,-0.1078 0,-0.1797 0.683,-0.8266 3.518,-3.5547 5.567,-9.2656 5.567,-16.7719 0,-6.1406 -1.33,-12.46247 -5.783,-16.98747 -0.467,-0.42969 -0.467,-0.50157 -0.467,-0.60938 0,-0.21562 0.144,-0.35937 0.359,-0.35937 0.36,0 3.592,2.44218 5.711,7.00312 1.831,3.95 2.263,7.9375 2.263,10.9531"
         style="fill:#000000;fill-opacity:1;fill-rule:nonzero;stroke:none"
         id="path21575" /><path
         d="m 260.0568,22.6218 c 0.54,0 1.221,0 1.221,0.7187 0,0.7188 -0.681,0.7188 -1.185,0.7188 h -21.512 c -0.503,0 -1.186,0 -1.186,-0.7188 0,-0.7187 0.683,-0.7187 1.222,-0.7187 z m 0.036,-6.9672 c 0.504,0 1.185,0 1.185,0.7187 0,0.7172 -0.681,0.7172 -1.221,0.7172 h -21.44 c -0.539,0 -1.222,0 -1.222,-0.7172 0,-0.7187 0.683,-0.7187 1.186,-0.7187 h 21.512"
         style="fill:#000000;fill-opacity:1;fill-rule:nonzero;stroke:none"
         id="path21577" /><path
         d="m 289.7038,22.3702 c 0,2.8734 -0.179,5.7469 -1.436,8.4047 -1.653,3.4469 -4.596,4.0219 -6.106,4.0219 -2.155,0 -4.776,-0.9344 -6.248,-4.2735 -1.15,-2.4781 -1.33,-5.2797 -1.33,-8.1531 0,-2.6938 0.144,-5.925 1.617,-8.6547 1.544,-2.9094 4.166,-3.62812 5.925,-3.62812 1.939,0 4.669,0.75472 6.25,4.16722 1.149,2.4781 1.328,5.2781 1.328,8.1156 z m -7.578,-11.4922 c -1.4,0 -3.519,0.8984 -4.165,4.3453 -0.396,2.1547 -0.396,5.4594 -0.396,7.5781 0,2.2985 0,4.6688 0.288,6.6079 0.683,4.275 3.376,4.5968 4.273,4.5968 1.186,0 3.556,-0.6453 4.239,-4.2015 0.358,-2.011 0.358,-4.7407 0.358,-7.0032 0,-2.6937 0,-5.1359 -0.394,-7.4343 -0.539,-3.411 -2.586,-4.4891 -4.203,-4.4891"
         style="fill:#000000;fill-opacity:1;fill-rule:nonzero;stroke:none"
         id="path21579" /></g></g></svg>
